<svg width="123" height="165" viewBox="0 0 123 165" fill="none" xmlns="http://www.w3.org/2000/svg">
<path d="M96.1115 30.558C96.3115 30.258 96.5115 30.058 96.9115 29.858C101.011 35.158 107.212 37.858 112.812 36.158C120.612 33.758 124.511 23.858 121.511 13.958C118.811 5.05796 111.411 -0.642044 104.211 0.0579563C104.211 0.0579563 90.7115 0.0579567 89.2115 16.858C88.8115 21.158 90.0115 26.158 91.5115 30.558H91.4115C91.4115 30.558 91.5115 30.758 91.7115 31.158C93.0115 34.758 94.4115 37.858 95.4115 39.858C95.6115 40.458 95.8115 40.958 96.1115 41.658H65.3115H57.2115H26.5115C26.7115 41.058 26.9115 40.458 27.2115 39.858C28.2115 37.858 29.7115 34.758 30.9115 31.158C31.1115 30.758 31.2115 30.558 31.2115 30.558H31.1115C32.6115 26.158 33.7115 21.158 33.4115 16.858C31.8115 0.0579567 18.3115 0.0579563 18.3115 0.0579563C11.2115 -0.642044 3.7115 5.15796 1.0115 14.058C-1.9885 23.858 1.9115 33.858 9.7115 36.258C15.4115 37.958 21.5115 35.258 25.6115 29.958C26.0115 30.058 26.2115 30.258 26.4115 30.658H26.1115C26.1115 30.658 -4.4885 86.058 3.8115 117.958C11.2115 162.858 57.5115 164.858 60.9115 164.958C60.9115 164.958 60.9115 164.958 61.0115 164.958C61.1115 164.958 61.1115 164.958 61.1115 164.958C64.6115 164.858 111.311 162.858 118.711 117.958C127.011 86.058 96.4115 30.558 96.4115 30.558H96.1115ZM84.1115 50.158V132.958C81.2115 134.358 78.1115 135.558 74.9115 136.358V50.158H84.1115ZM65.3115 50.158H72.1115V136.958C69.1115 137.558 66.0115 137.858 62.8115 137.858V50.158H65.3115ZM57.2115 50.158H60.0115V137.858C56.8115 137.758 53.7115 137.458 50.8115 136.858V50.158H57.2115ZM48.1115 50.158V136.258C44.8115 135.458 41.7115 134.358 38.9115 132.858V50.158H48.1115ZM17.2115 98.958C16.2115 80.058 19.8115 62.658 23.7115 50.158H36.2115V131.458C25.3115 125.058 18.2115 114.058 17.2115 98.958ZM105.411 98.958C104.411 114.158 97.4115 125.158 86.8115 131.458V50.158H99.0115C102.811 62.658 106.411 79.958 105.411 98.958Z" fill="#1D1D1B"/>
</svg>
