<svg width="205" height="144" viewBox="0 0 205 144" fill="none" xmlns="http://www.w3.org/2000/svg">
<path d="M19 8.5L15.5 116.5C15.5 116.5 34 111.5 56.5 114C79 116.5 95 128 95 128L100.5 30.5C100.5 30.5 96.5 11 80 8.5C63.5 6 19 8.5 19 8.5Z" fill="#1D1D1B"/>
<path d="M106 36L103 128C103 128 116 117 132.5 112C149 107 186 110 186 110L192 1.90735e-06C192 1.90735e-06 177 1.90735e-06 166 1.90735e-06C155 1.90735e-06 140 4 140 4C140 4 109 12 106 36Z" fill="#1D1D1B"/>
<path d="M11.5 13.5L9 128C9 128 23.5 125 39.5 126C60.5 126 84.5 131.5 84.5 131.5L102.3 135L112 131.5C112 131.5 130.5 123.6 158.5 120.5C180.5 118.064 192 120.5 192 120.5L197.5 7.4H204.5L200.5 136.5L0 143.5L4 13.5H11.5Z" fill="#1D1D1B"/>
</svg>
