<svg width="168" height="131" viewBox="0 0 168 131" fill="none" xmlns="http://www.w3.org/2000/svg">
<g clip-path="url(#clip0_6_79)">
<path d="M152.3 0H15.2C6.8 0 0 6.8 0 15.2V115.3C0 123.7 6.8 130.5 15.2 130.5H152.3C160.7 130.5 167.5 123.7 167.5 115.3V15.2C167.5 6.8 160.7 0 152.3 0ZM114.7 66.9C112.4 64.5 108.6 64.4 106.2 66.6C103.8 68.9 103.7 72.7 105.9 75.1L146.7 118.5H20.7L61.5 75.1C63.8 72.7 63.7 68.9 61.2 66.6C58.8 64.3 55 64.4 52.7 66.9L12 110.3V21.3L79.9 78.2C81 79.1 82.4 79.6 83.8 79.6C85.2 79.6 86.5 79.1 87.7 78.2L155.6 21.3V110.3L114.7 66.9ZM19.7 12H147.8L83.8 65.7L19.7 12Z" fill="#1D1D1B"/>
</g>
<defs>
<clipPath id="clip0_6_79">
<rect width="167.5" height="130.5" fill="white"/>
</clipPath>
</defs>
</svg>
