<svg width="224" height="160" viewBox="0 0 224 160" fill="none" xmlns="http://www.w3.org/2000/svg">
<g opacity="0.46">
<path d="M107.897 86.7998L109.197 84.4998H110.497L108.597 87.5998L110.497 90.7998H109.197L107.897 88.4998L106.597 90.7998H105.297L107.197 87.5998L105.297 84.4998H106.597L107.897 86.7998Z" fill="white"/>
<path d="M112.397 88.3999V90.6999H111.297V84.3999H113.697C114.397 84.3999 114.997 84.5999 115.397 84.8999C115.797 85.1999 115.997 85.6999 115.997 86.2999C115.997 86.8999 115.797 87.3999 115.397 87.6999C114.997 87.9999 114.397 88.1999 113.697 88.1999H112.397V88.3999ZM112.397 87.5999H113.697C114.097 87.5999 114.397 87.4999 114.597 87.2999C114.797 87.0999 114.897 86.8999 114.897 86.4999C114.897 86.1999 114.797 85.8999 114.597 85.6999C114.397 85.4999 114.097 85.3999 113.697 85.3999H112.397V87.5999Z" fill="white"/>
<path d="M119.195 87.7998L120.495 84.4998H121.695L119.495 89.6998L119.295 90.0998C118.995 90.5998 118.495 90.8998 117.895 90.8998H117.495V89.9998C117.595 89.9998 117.695 89.9998 117.895 89.9998C118.195 89.9998 118.395 89.8998 118.595 89.5998L118.795 89.0998L116.695 84.4998H117.895L119.195 87.7998Z" fill="white"/>
<path d="M127.398 90.7998H126.298V85.3998H123.498V90.7998H122.398V84.4998H127.298V90.7998H127.398Z" fill="white"/>
<path d="M130.597 88.0998H129.897V90.7998H128.797V84.4998H129.897V87.0998H130.497L132.297 84.4998H133.597L131.497 87.4998L133.797 90.7998H132.497L130.597 88.0998Z" fill="white"/>
<path d="M139.2 87.7998C139.2 88.3998 139.1 88.9998 138.9 89.3998C138.7 89.8998 138.4 90.1998 138 90.4998C137.6 90.6998 137.2 90.8998 136.6 90.8998C136.1 90.8998 135.6 90.7998 135.2 90.4998C134.8 90.2998 134.5 89.8998 134.3 89.3998C134.1 88.8998 134 88.3998 134 87.7998V87.3998C134 86.7998 134.1 86.2998 134.3 85.7998C134.5 85.2998 134.8 84.9998 135.2 84.6998C135.6 84.4998 136 84.2998 136.6 84.2998C137.2 84.2998 137.6 84.3998 138 84.6998C138.4 84.8998 138.7 85.2998 138.9 85.7998C139.1 86.2998 139.2 86.7998 139.2 87.3998V87.7998ZM138.1 87.4998C138.1 86.7998 138 86.2998 137.7 85.8998C137.4 85.4998 137.1 85.2998 136.6 85.2998C136.1 85.2998 135.8 85.4998 135.5 85.8998C135.2 86.2998 135.1 86.7998 135.1 87.4998V87.8998C135.1 88.5998 135.2 89.0998 135.5 89.4998C135.8 89.8998 136.1 90.0998 136.6 90.0998C137.1 90.0998 137.5 89.8998 137.7 89.4998C138 89.0998 138.1 88.5998 138.1 87.8998V87.4998Z" fill="white"/>
<path d="M143.895 87.9998H141.295V89.8998H144.295V90.7998H140.195V84.4998H144.295V85.3998H141.295V87.0998H143.895V87.9998Z" fill="white"/>
<path d="M167.997 90.2999H167.097V87.8999H164.697V90.2999H163.797V84.8999H164.697V87.1999H167.097V84.8999H167.997V90.2999Z" fill="white"/>
<path d="M171.895 87.8998H169.695V89.5998H172.295V90.3998H168.695V84.9998H172.195V85.7998H169.595V87.2998H171.795V87.8998H171.895Z" fill="white"/>
<path d="M175.797 87.9999H175.197V90.2999H174.297V84.8999H175.197V87.1999H175.697L177.297 84.8999H178.497L176.597 87.4999L178.597 90.2999H177.497L175.797 87.9999Z" fill="white"/>
<path d="M181.797 89.0998H179.697L179.297 90.3998H178.297L180.397 84.9998H181.197L183.297 90.3998H182.297L181.797 89.0998ZM179.997 88.2998H181.597L180.797 85.9998L179.997 88.2998Z" fill="white"/>
<path d="M187.794 90.2999H186.894V87.8999H184.494V90.2999H183.594V84.8999H184.494V87.1999H186.894V84.8999H187.794V90.2999Z" fill="white"/>
<path d="M192.394 85.5998H190.694V90.2998H189.794V85.5998H188.094V84.7998H192.394V85.5998Z" fill="white"/>
<path d="M196.998 87.6998C196.998 88.1998 196.898 88.6998 196.698 89.0998C196.498 89.4998 196.298 89.7998 195.898 89.9998C195.598 90.1998 195.198 90.2998 194.698 90.2998C194.298 90.2998 193.898 90.1998 193.498 89.9998C193.198 89.7998 192.898 89.4998 192.698 89.0998C192.498 88.6998 192.398 88.1998 192.398 87.6998V87.3998C192.398 86.8998 192.498 86.3998 192.698 85.9998C192.898 85.5998 193.198 85.2998 193.498 85.0998C193.798 84.8998 194.198 84.7998 194.698 84.7998C195.098 84.7998 195.498 84.8998 195.898 85.0998C196.298 85.2998 196.498 85.5998 196.698 85.9998C196.898 86.3998 196.998 86.8998 196.998 87.3998V87.6998ZM195.998 87.4998C195.998 86.8998 195.898 86.3998 195.698 86.0998C195.498 85.7998 195.098 85.5998 194.698 85.5998C194.298 85.5998 193.998 85.7998 193.698 86.0998C193.498 86.3998 193.398 86.8998 193.298 87.4998V87.7998C193.298 88.3998 193.398 88.8998 193.598 89.1998C193.798 89.4998 194.198 89.6998 194.598 89.6998C194.998 89.6998 195.298 89.4998 195.598 89.1998C195.898 88.8998 195.898 88.3998 195.898 87.7998V87.4998H195.998Z" fill="white"/>
<path d="M197.5 90.2999V84.8999H199.4C200 84.8999 200.5 84.9999 200.8 85.2999C201.1 85.4999 201.3 85.8999 201.3 86.3999C201.3 86.5999 201.2 86.8999 201.1 87.0999C201 87.2999 200.8 87.4999 200.5 87.5999C200.8 87.6999 201 87.7999 201.2 88.0999C201.4 88.3999 201.4 88.5999 201.4 88.8999C201.4 89.3999 201.2 89.7999 200.9 90.0999C200.6 90.3999 200.1 90.4999 199.5 90.4999H197.5V90.2999ZM198.5 87.1999H199.4C199.7 87.1999 199.9 87.0999 200.1 86.9999C200.3 86.8999 200.3 86.6999 200.3 86.3999C200.3 86.0999 200.2 85.8999 200.1 85.7999C200 85.6999 199.7 85.5999 199.4 85.5999H198.5V87.1999ZM198.5 87.8999V89.5999H199.6C199.9 89.5999 200.1 89.4999 200.3 89.3999C200.5 89.2999 200.6 88.9999 200.6 88.7999C200.6 88.1999 200.3 87.8999 199.7 87.8999H198.5Z" fill="white"/>
<path d="M205 89.0998H202.9L202.5 90.3998H201.5L203.6 84.9998H204.4L206.5 90.3998H205.5L205 89.0998ZM203.1 88.2998H204.7L203.9 85.9998L203.1 88.2998Z" fill="white"/>
<path d="M210.097 85.5998H208.397V90.2998H207.497V85.5998H205.797V84.7998H210.097V85.5998Z" fill="white"/>
<path d="M211.398 86.9998H212.498C212.898 86.9998 213.198 87.0998 213.498 87.1998C213.798 87.2998 213.998 87.4998 214.198 87.7998C214.398 88.0998 214.398 88.2998 214.398 88.6998C214.398 89.1998 214.198 89.5998 213.898 89.8998C213.598 90.1998 213.098 90.3998 212.498 90.3998H210.398V84.9998H211.298V86.9998H211.398ZM211.398 87.6998V89.4998H212.498C212.798 89.4998 213.098 89.3998 213.198 89.1998C213.398 88.9998 213.498 88.7998 213.498 88.4998C213.498 88.1998 213.398 87.9998 213.198 87.7998C212.998 87.5998 212.798 87.5998 212.498 87.5998H211.398V87.6998Z" fill="white"/>
<path d="M129.106 68.8999C129.106 68.8999 129.106 66.6999 129.106 63.4999C129.106 60.1999 131.406 52.1999 131.406 51.2999C131.406 50.3999 129.806 47.6999 129.806 47.6999V45.7999C129.806 45.7999 130.806 45.5999 131.506 44.9999C132.206 44.3999 133.106 43.7999 133.106 43.7999V41.7999C133.106 41.7999 134.506 41.2999 135.506 40.5999C136.506 39.7999 137.006 38.8999 137.106 36.8999C137.206 34.8999 137.906 26.0999 137.906 21.3999C137.906 16.5999 142.206 6.9999 142.806 5.5999C143.406 4.1999 142.806 3.8999 142.806 3.8999H128.506L124.906 7.7999V11.8999L121.306 13.3999V15.8999L116.806 18.6999L117.106 18.8999C117.306 19.7999 117.406 20.6999 117.406 21.3999C117.406 26.1999 118.106 34.8999 118.206 36.8999C118.306 38.8999 118.806 39.7999 119.806 40.5999C120.806 41.3999 122.206 41.7999 122.206 41.7999V43.7999C122.206 43.7999 123.106 44.4999 123.806 44.9999C124.506 45.5999 125.506 45.7999 125.506 45.7999V47.6999C125.506 47.6999 123.906 50.3999 123.906 51.2999C123.906 52.1999 126.206 60.2999 126.206 63.4999C126.206 66.7999 126.206 68.8999 126.206 68.8999L111.406 74.5999V75.7999H126.706H127.606H128.106H144.006V74.5999L129.106 68.8999Z" fill="white"/>
<path d="M116.803 17.1999L118.603 14.4999L116.403 10.7999L120.003 7.9999L117.403 5.7999L119.003 2.3999L111.203 2.9999C111.203 2.9999 110.703 3.3999 111.303 4.6999C111.903 5.7999 115.403 12.2999 116.803 17.1999Z" fill="white"/>
<path d="M214.802 68.7998H164.102V76.9998H214.802V68.7998Z" fill="white"/>
<path d="M218.098 94.7999H216.398V94.2999H217.598V93.0999H218.098V94.7999Z" fill="white"/>
<path d="M214.895 94.7998H211.895V94.2998H214.895V94.7998ZM210.295 94.7998H207.295V94.2998H210.295V94.7998ZM205.795 94.7998H202.795V94.2998H205.795V94.7998ZM201.195 94.7998H198.195V94.2998H201.195V94.7998ZM196.595 94.7998H193.595V94.2998H196.595V94.7998ZM192.095 94.7998H189.095V94.2998H192.095V94.7998ZM187.495 94.7998H184.495V94.2998H187.495V94.7998ZM182.995 94.7998H179.995V94.2998H182.995V94.7998ZM178.395 94.7998H175.395V94.2998H178.395V94.7998ZM173.895 94.7998H170.895V94.2998H173.895V94.7998ZM169.295 94.7998H166.295V94.2998H169.295V94.7998ZM164.695 94.7998H161.695V94.2998H164.695V94.7998Z" fill="white"/>
<path d="M160.198 94.7999H158.398V93.0999H158.998V94.2999H160.198V94.7999Z" fill="white"/>
<path d="M159 91.4H158.5V88.1H159V91.4ZM159 86.5H158.5V83.2H159V86.5Z" fill="white"/>
<path d="M158.998 81.5999H158.398V79.8999H160.198V80.3999H158.998V81.5999Z" fill="white"/>
<path d="M214.895 80.3999H211.895V79.8999H214.895V80.3999ZM210.295 80.3999H207.295V79.8999H210.295V80.3999ZM205.795 80.3999H202.795V79.8999H205.795V80.3999ZM201.195 80.3999H198.195V79.8999H201.195V80.3999ZM196.595 80.3999H193.595V79.8999H196.595V80.3999ZM192.095 80.3999H189.095V79.8999H192.095V80.3999ZM187.495 80.3999H184.495V79.8999H187.495V80.3999ZM182.995 80.3999H179.995V79.8999H182.995V80.3999ZM178.395 80.3999H175.395V79.8999H178.395V80.3999ZM173.895 80.3999H170.895V79.8999H173.895V80.3999ZM169.295 80.3999H166.295V79.8999H169.295V80.3999ZM164.695 80.3999H161.695V79.8999H164.695V80.3999Z" fill="white"/>
<path d="M218.098 81.5999H217.598V80.3999H216.398V79.8999H218.098V81.5999Z" fill="white"/>
<path d="M218.102 91.4H217.602V88.1H218.102V91.4ZM218.102 86.5H217.602V83.2H218.102V86.5Z" fill="white"/>
<path d="M152.403 94.7999H150.703V94.2999H151.803V93.0999H152.403V94.7999Z" fill="white"/>
<path d="M149.3 94.7998H146.5V94.2998H149.3V94.7998ZM145.1 94.7998H142.3V94.2998H145.1V94.7998ZM141 94.7998H138.2V94.2998H141V94.7998ZM136.8 94.7998H134V94.2998H136.8V94.7998ZM132.6 94.7998H129.8V94.2998H132.6V94.7998ZM128.4 94.7998H125.6V94.2998H128.4V94.7998ZM124.2 94.7998H121.4V94.2998H124.2V94.7998ZM120.1 94.7998H117.3V94.2998H120.1V94.7998ZM115.9 94.7998H113.1V94.2998H115.9V94.7998ZM111.7 94.7998H108.9V94.2998H111.7V94.7998ZM107.5 94.7998H104.7V94.2998H107.5V94.7998ZM103.3 94.7998H100.5V94.2998H103.3V94.7998Z" fill="white"/>
<path d="M99.2 94.7999H97.5V93.0999H98V94.2999H99.2V94.7999Z" fill="white"/>
<path d="M98 91.5H97.5V88.2H98V91.5ZM98 86.5H97.5V83.2H98V86.5Z" fill="white"/>
<path d="M98 81.4999H97.5V79.8999H99.2V80.3999H98V81.4999Z" fill="white"/>
<path d="M149.3 80.3999H146.5V79.8999H149.3V80.3999ZM145.1 80.3999H142.3V79.8999H145.1V80.3999ZM141 80.3999H138.2V79.8999H141V80.3999ZM136.8 80.3999H134V79.8999H136.8V80.3999ZM132.6 80.3999H129.8V79.8999H132.6V80.3999ZM128.4 80.3999H125.6V79.8999H128.4V80.3999ZM124.2 80.3999H121.4V79.8999H124.2V80.3999ZM120.1 80.3999H117.3V79.8999H120.1V80.3999ZM115.9 80.3999H113.1V79.8999H115.9V80.3999ZM111.7 80.3999H108.9V79.8999H111.7V80.3999ZM107.5 80.3999H104.7V79.8999H107.5V80.3999ZM103.3 80.3999H100.5V79.8999H103.3V80.3999Z" fill="white"/>
<path d="M152.403 81.4999H151.803V80.3999H150.703V79.8999H152.403V81.4999Z" fill="white"/>
<path d="M152.398 91.5H151.898V88.2H152.398V91.5ZM152.398 86.5H151.898V83.2H152.398V86.5Z" fill="white"/>
<path d="M174.397 3.6001L164.297 13.7001H170.297V63.6001H178.497V13.7001H184.497L174.397 3.6001Z" fill="white"/>
<path d="M214.098 13.7001L203.998 3.6001L193.898 13.7001H199.898V63.6001H208.098V13.7001H214.098Z" fill="white"/>
</g>
<path d="M17.2047 151.7H17.3047L22.8047 129.8H30.3047V159.3H24.6047V140.7H24.5047L19.2047 159.3H15.4047L10.1047 140.8H10.0047V159.2H4.30469V129.7H11.7047L17.2047 151.7Z" fill="white"/>
<path d="M48.7016 153H41.3016L39.6016 159.4H33.6016L42.0016 129.9H48.0016L56.4016 159.4H50.4016L48.7016 153ZM42.5016 148.5H47.5016L45.0016 139.1H44.9016L42.5016 148.5Z" fill="white"/>
<path d="M80.0016 159.4H74.3016V147.1H64.8016V159.4H59.1016V129.9H64.8016V142.6H74.3016V129.9H80.0016V159.4Z" fill="white"/>
<path d="M98.5062 153H91.1062L89.4062 159.4H83.4062L91.8063 129.9H97.7062L106.106 159.4H100.106L98.5062 153ZM92.3063 148.5H97.3063L94.8063 139.1H94.7062L92.3063 148.5Z" fill="white"/>
<path d="M123.708 146.3H114.708V154.9H125.508V159.4H109.008V129.9H125.508V134.4H114.708V141.9H123.708V146.3Z" fill="white"/>
<path d="M150.408 159.4H144.708V147.1H135.208V159.4H129.508V129.9H135.208V142.6H144.708V129.9H150.408V159.4Z" fill="white"/>
<path d="M162.605 147H161.005V159.4H155.305V129.9H161.005V142H162.205L168.505 129.9H175.605L167.105 143.4L176.205 159.4H168.905L162.605 147Z" fill="white"/>
<path d="M199.205 148.7C199.205 152.2 198.205 154.9 196.305 156.8C194.305 158.7 191.705 159.7 188.505 159.7C185.205 159.7 182.605 158.7 180.705 156.8C178.805 154.9 177.805 152.1 177.805 148.7V140.5C177.805 137 178.805 134.3 180.705 132.4C182.605 130.4 185.205 129.5 188.505 129.5C191.805 129.5 194.405 130.5 196.305 132.4C198.205 134.3 199.205 137.1 199.205 140.5V148.7ZM193.505 140.4C193.505 138.3 193.105 136.6 192.205 135.5C191.305 134.4 190.105 133.9 188.405 133.9C186.705 133.9 185.505 134.4 184.705 135.5C183.905 136.6 183.405 138.2 183.405 140.4V148.7C183.405 150.9 183.805 152.5 184.705 153.6C185.505 154.7 186.805 155.2 188.505 155.2C190.205 155.2 191.405 154.7 192.305 153.6C193.205 152.5 193.605 150.9 193.605 148.7V140.4H193.505Z" fill="white"/>
<path d="M203.602 159.4V129.9H212.102C215.202 129.9 217.602 130.6 219.302 131.9C221.002 133.2 221.902 135.3 221.902 137.9C221.902 139.3 221.602 140.5 221.002 141.6C220.402 142.7 219.402 143.5 218.202 144C219.802 144.3 221.102 145.1 221.902 146.4C222.702 147.6 223.102 149.1 223.102 150.8C223.102 153.6 222.302 155.8 220.602 157.2C219.002 158.7 216.602 159.4 213.602 159.4H203.602ZM209.402 142.3H212.402C213.602 142.3 214.602 141.9 215.202 141.3C215.802 140.6 216.202 139.7 216.202 138.4C216.202 137 215.902 136 215.202 135.3C214.502 134.6 213.502 134.3 212.202 134.3H209.502V142.3H209.402ZM209.402 146.3V154.9H213.602C214.802 154.9 215.802 154.6 216.402 153.9C217.002 153.2 217.402 152.2 217.402 150.8C217.402 149.4 217.102 148.3 216.502 147.5C215.902 146.7 215.002 146.3 213.802 146.3H213.602H209.402Z" fill="white"/>
<path d="M4.20312 123.9V101.1H10.5031C12.7031 101.1 14.4031 101.6 15.6031 102.6C16.8031 103.6 17.4031 105.2 17.4031 107.2C17.4031 108.3 17.1031 109.2 16.6031 110C16.1031 110.8 15.3031 111.4 14.4031 111.8C15.7031 112 16.7031 112.6 17.5031 113.7C18.2031 114.7 18.6031 116 18.6031 117.4C18.6031 119.5 18.0031 121.1 16.8031 122.2C15.6031 123.3 13.9031 123.9 11.8031 123.9H4.20312ZM7.40313 111H11.0031C12.0031 111 12.8031 110.6 13.4031 110C14.0031 109.4 14.3031 108.5 14.3031 107.3C14.3031 106 14.0031 105.1 13.3031 104.5C12.6031 103.9 11.7031 103.6 10.5031 103.6H7.40313V111ZM7.40313 113.3V121.5H11.8031C12.9031 121.5 13.8031 121.2 14.5031 120.5C15.1031 119.8 15.4031 118.8 15.4031 117.5C15.4031 116.2 15.1031 115.2 14.5031 114.5C13.9031 113.7 13.0031 113.4 11.9031 113.3H11.7031H7.40313Z" fill="white"/>
<path d="M43.6062 101.1V123.9H40.4062V103.5H34.0062V111.5C34.0062 115.8 33.5063 119 32.4062 120.9C31.4062 122.8 29.7062 123.8 27.5062 123.8H26.9062V121.4H27.4062C28.7062 121.4 29.5062 120.7 30.0062 119.2C30.5062 117.8 30.7062 115.2 30.7062 111.4V100.9H43.6062V101.1Z" fill="white"/>
<path d="M64.7 118.1H57.9L56.3 123.9H53L59.8 101.1H62.9L69.7 123.9H66.4L64.7 118.1ZM58.7 115.6H64L61.4 106.3H61.3L58.7 115.6Z" fill="white"/>
<path d="M97.0062 124.5H93.8063V123.9H80.6062V124.5H77.4062V121.5H78.6062C79.7062 121.5 80.5062 120.6 81.1062 118.7C81.6062 116.8 82.0062 113.9 82.1062 110L82.6062 101.2H94.5062V121.6H96.9062V124.5H97.0062ZM85.3063 110C85.2063 112.7 84.9062 115 84.5062 116.9C84.1062 118.8 83.5062 120.4 82.7062 121.5H91.3063V103.6H85.6062L85.3063 110Z" fill="white"/>
<path d="M118.1 101.1H121.3V123.9H118.1V107.2H118L109.2 123.9H106V101.1H109.2V117.8H109.3L118.1 101.1Z" fill="white"/>
<path d="M146.206 117.1C146.306 119.4 145.606 121.2 144.406 122.4C143.106 123.6 141.306 124.3 139.106 124.3C136.806 124.3 134.906 123.6 133.506 122.1C132.106 120.6 131.406 118.5 131.406 115.8V109.5C131.406 106.8 132.106 104.7 133.506 103.2C134.906 101.7 136.706 100.9 139.006 100.9C141.306 100.9 143.106 101.5 144.506 102.7C145.906 103.9 146.406 105.7 146.406 108V108.1H143.306C143.306 106.5 142.906 105.3 142.206 104.5C141.506 103.7 140.406 103.3 139.006 103.3C137.606 103.3 136.506 103.8 135.806 104.9C135.006 105.9 134.706 107.5 134.706 109.4V115.8C134.706 117.8 135.106 119.3 135.906 120.4C136.706 121.5 137.806 122 139.206 122C140.606 122 141.606 121.6 142.306 120.9C143.006 120.1 143.306 118.9 143.306 117.3H146.206V117.1Z" fill="white"/>
<path d="M171.402 101.1V123.9H168.202V103.5H161.702V111.5C161.702 115.8 161.202 119 160.102 120.9C159.102 122.8 157.402 123.8 155.202 123.8H154.602V121.4H155.102C156.402 121.4 157.202 120.7 157.702 119.2C158.202 117.8 158.402 115.2 158.402 111.4V100.9H171.402V101.1Z" fill="white"/>
<path d="M192.505 118.1H185.705L184.105 123.9H180.805L187.605 101.1H190.705L197.505 123.9H194.205L192.505 118.1ZM186.405 115.6H191.805L189.205 106.3H189.105L186.405 115.6Z" fill="white"/>
<path d="M206.5 123.9V101.1H212.8C215 101.1 216.7 101.6 217.9 102.6C219.1 103.6 219.7 105.2 219.7 107.2C219.7 108.3 219.4 109.2 218.9 110C218.4 110.8 217.6 111.4 216.7 111.8C218 112 219 112.6 219.8 113.7C220.5 114.7 220.9 116 220.9 117.4C220.9 119.5 220.3 121.1 219.1 122.2C217.9 123.3 216.2 123.9 214.1 123.9H206.5ZM209.7 111H213.3C214.3 111 215.1 110.6 215.7 110C216.3 109.4 216.6 108.5 216.6 107.3C216.6 106 216.3 105.1 215.6 104.5C214.9 103.9 214 103.6 212.8 103.6H209.7V111ZM209.7 113.3V121.5H214.1C215.2 121.5 216.1 121.2 216.8 120.5C217.4 119.8 217.7 118.8 217.7 117.5C217.7 116.2 217.4 115.2 216.8 114.5C216.2 113.7 215.3 113.4 214.2 113.3H214H209.7Z" fill="white"/>
<path d="M87.3031 0.100098H3.00312C1.70312 0.100098 0.703125 1.3001 0.703125 2.9001V92.0001C0.703125 93.5001 1.70312 94.8001 3.00312 94.8001H87.4031C88.7031 94.8001 89.7031 93.6001 89.7031 92.0001V2.9001C89.6031 1.3001 88.6031 0.100098 87.3031 0.100098ZM32.5031 44.6001H31.1031H27.8031C26.5031 44.6001 25.5031 45.8001 25.5031 47.3001V80.3001C25.5031 83.0001 27.1031 84.8001 28.7031 85.3001V87.8001H11.2031H5.90313V85.3001C9.00313 84.7001 9.00312 82.4001 9.20312 80.3001L16.7031 16.0001C16.9031 14.0001 15.3031 11.3001 13.5031 11.3001L13.7031 9.2001H29.8031C31.1031 9.2001 32.4031 10.4001 32.4031 11.9001V44.6001H32.5031ZM53.5031 44.6001H52.2031C50.9031 44.6001 50.0031 45.8001 50.0031 47.3001V87.4001H38.8031V47.3001C38.8031 45.8001 37.7031 44.6001 36.4031 44.6001H35.2031L34.8031 12.0001C34.8031 10.5001 36.2031 9.3001 37.5031 9.3001C42.7031 9.3001 45.9031 9.3001 51.2031 9.3001C52.5031 9.3001 53.5031 10.5001 53.5031 12.0001V44.6001ZM82.7031 87.9001H77.4031H59.8031V85.4001C61.4031 84.9001 63.0031 83.1001 63.0031 80.4001V47.4001C63.0031 45.9001 62.0031 44.7001 60.7031 44.7001H57.4031H56.1031V12.0001C56.1031 10.5001 57.5031 9.3001 58.7031 9.3001H74.8031L75.0031 11.4001C73.2031 11.4001 71.6031 14.1001 71.8031 16.1001L79.3031 80.4001C79.5031 82.5001 79.5031 84.8001 82.6031 85.4001V87.9001H82.7031Z" fill="white"/>
</svg>
