<svg width="601" height="460" viewBox="0 0 601 460" fill="none" xmlns="http://www.w3.org/2000/svg">
<g opacity="0.46">
<path d="M287.976 229.772L291.473 223.585H294.97L289.859 231.924L294.97 240.532H291.473L287.976 234.345L284.479 240.532H280.982L286.093 231.924L280.982 223.585H284.479L287.976 229.772Z" fill="white"/>
<path d="M300.081 234.345V240.532H297.122V223.585H303.578C305.461 223.585 307.075 224.123 308.151 224.93C309.227 225.737 309.765 227.082 309.765 228.696C309.765 230.31 309.227 231.655 308.151 232.462C307.075 233.269 305.461 233.807 303.578 233.807H300.081V234.345ZM300.081 231.924H303.578C304.654 231.924 305.461 231.655 305.999 231.117C306.537 230.579 306.806 230.041 306.806 228.965C306.806 228.158 306.537 227.351 305.999 226.813C305.461 226.275 304.654 226.006 303.578 226.006H300.081V231.924Z" fill="white"/>
<path d="M318.374 232.462L321.872 223.585H325.1L319.182 237.573L318.643 238.649C317.836 239.994 316.491 240.801 314.877 240.801H313.802V238.38C314.071 238.38 314.339 238.38 314.877 238.38C315.684 238.38 316.223 238.111 316.761 237.304L317.298 235.959L311.649 223.585H314.877L318.374 232.462Z" fill="white"/>
<path d="M340.431 240.532H337.472V226.006H329.94V240.532H326.981V223.585H340.162V240.532H340.431Z" fill="white"/>
<path d="M349.04 233.269H347.157V240.532H344.198V223.585H347.157V230.579H348.771L353.613 223.585H357.11L351.461 231.655L357.648 240.532H354.151L349.04 233.269Z" fill="white"/>
<path d="M372.175 232.731C372.175 234.345 371.906 235.959 371.368 237.035C370.83 238.38 370.023 239.187 368.947 239.994C367.871 240.532 366.795 241.07 365.181 241.07C363.836 241.07 362.491 240.801 361.415 239.994C360.339 239.456 359.532 238.38 358.994 237.035C358.456 235.69 358.187 234.345 358.187 232.731V231.655C358.187 230.041 358.456 228.696 358.994 227.351C359.532 226.006 360.339 225.199 361.415 224.392C362.491 223.854 363.567 223.315 365.181 223.315C366.795 223.315 367.871 223.585 368.947 224.392C370.023 224.93 370.83 226.006 371.368 227.351C371.906 228.696 372.175 230.041 372.175 231.655V232.731ZM369.216 231.655C369.216 229.772 368.947 228.427 368.14 227.351C367.333 226.275 366.526 225.737 365.181 225.737C363.836 225.737 363.029 226.275 362.222 227.351C361.415 228.427 361.146 229.772 361.146 231.655V232.731C361.146 234.614 361.415 235.959 362.222 237.035C363.029 238.111 363.836 238.649 365.181 238.649C366.526 238.649 367.602 238.111 368.14 237.035C368.947 235.959 369.216 234.614 369.216 232.731V231.655Z" fill="white"/>
<path d="M384.819 233H377.825V238.111H385.895V240.532H374.866V223.585H385.895V226.006H377.825V230.579H384.819V233Z" fill="white"/>
<path d="M449.649 239.456H447.228V233H440.771V239.456H438.35V224.93H440.771V231.117H447.228V224.93H449.649V239.456Z" fill="white"/>
<path d="M460.141 232.731H454.223V237.304H461.217V239.456H451.533V224.93H460.948V227.082H453.954V231.117H459.872V232.731H460.141Z" fill="white"/>
<path d="M470.631 233H469.017V239.187H466.596V224.661H469.017V230.848H470.362L474.666 224.661H477.894L472.783 231.655L478.163 239.187H475.204L470.631 233Z" fill="white"/>
<path d="M486.771 235.959H481.122L480.046 239.456H477.356L483.005 224.93H485.157L490.807 239.456H488.116L486.771 235.959ZM481.93 233.807H486.234L484.081 227.62L481.93 233.807Z" fill="white"/>
<path d="M502.911 239.456H500.49V233H494.034V239.456H491.613V224.93H494.034V231.117H500.49V224.93H502.911V239.456Z" fill="white"/>
<path d="M515.285 226.813H510.712V239.456H508.291V226.813H503.718V224.661H515.285V226.813Z" fill="white"/>
<path d="M527.391 232.462C527.391 233.807 527.122 235.152 526.584 236.228C526.046 237.304 525.508 238.111 524.432 238.649C523.625 239.187 522.549 239.456 521.204 239.456C520.128 239.456 519.052 239.187 517.976 238.649C517.169 238.111 516.362 237.304 515.824 236.228C515.286 235.152 515.017 233.807 515.017 232.462V231.655C515.017 230.31 515.286 228.965 515.824 227.889C516.362 226.813 517.169 226.006 517.976 225.468C518.783 224.93 519.859 224.661 521.204 224.661C522.28 224.661 523.356 224.93 524.432 225.468C525.508 226.006 526.046 226.813 526.584 227.889C527.122 228.965 527.391 230.31 527.391 231.655V232.462ZM524.97 231.655C524.97 230.041 524.701 228.696 524.163 227.889C523.625 227.082 522.549 226.544 521.473 226.544C520.397 226.544 519.59 227.082 518.783 227.889C518.245 228.696 517.976 230.041 517.707 231.655V232.462C517.707 234.076 517.976 235.421 518.514 236.228C519.052 237.035 520.128 237.573 521.204 237.573C522.28 237.573 523.087 237.035 523.894 236.228C524.701 235.421 524.701 234.076 524.701 232.462V231.655H524.97Z" fill="white"/>
<path d="M529.006 239.456V224.93H534.117C535.731 224.93 537.076 225.199 537.883 226.006C538.69 226.544 539.228 227.62 539.228 228.965C539.228 229.503 538.959 230.31 538.69 230.848C538.421 231.386 537.883 231.924 537.076 232.193C537.883 232.462 538.421 232.731 538.959 233.538C539.497 234.345 539.497 234.883 539.497 235.69C539.497 237.035 538.959 238.111 538.152 238.918C537.345 239.725 536 239.994 534.386 239.994H529.006V239.456ZM531.696 230.848H534.117C534.924 230.848 535.462 230.579 536 230.31C536.538 230.041 536.538 229.503 536.538 228.696C536.538 227.889 536.269 227.351 536 227.082C535.731 226.813 534.924 226.544 534.117 226.544H531.696V230.848ZM531.696 232.731V237.304H534.655C535.462 237.304 536 237.035 536.538 236.766C537.076 236.497 537.345 235.69 537.345 235.152C537.345 233.538 536.538 232.731 534.924 232.731H531.696Z" fill="white"/>
<path d="M549.181 235.959H543.532L542.456 239.456H539.766L545.415 224.93H547.567L553.216 239.456H550.526L549.181 235.959ZM544.07 233.807H548.374L546.222 227.62L544.07 233.807Z" fill="white"/>
<path d="M562.9 226.813H558.327V239.456H555.906V226.813H551.333V224.661H562.9V226.813Z" fill="white"/>
<path d="M566.396 230.31H569.355C570.431 230.31 571.238 230.579 572.046 230.848C572.853 231.117 573.39 231.655 573.928 232.462C574.466 233.269 574.466 233.807 574.466 234.883C574.466 236.228 573.928 237.304 573.121 238.111C572.314 238.918 570.969 239.456 569.355 239.456H563.706V224.93H566.127V230.31H566.396ZM566.396 232.462V237.304H569.355C570.162 237.304 570.969 237.035 571.238 236.497C571.776 235.959 572.046 235.421 572.046 234.614C572.046 233.807 571.776 233.269 571.238 232.731C570.7 232.193 570.162 232.193 569.355 232.193H566.396V232.462Z" fill="white"/>
<path d="M345.005 181.889C345.005 181.889 345.005 175.971 345.005 167.363C345.005 158.485 351.192 136.965 351.192 134.544C351.192 132.123 346.888 124.86 346.888 124.86V119.749C346.888 119.749 349.578 119.211 351.461 117.597C353.344 115.982 355.765 114.368 355.765 114.368V108.988C355.765 108.988 359.531 107.643 362.221 105.76C364.911 103.877 366.256 101.187 366.525 95.807C366.794 90.4269 368.677 66.7544 368.677 54.1111C368.677 41.1988 380.245 15.3743 381.859 11.6082C383.473 7.84215 381.859 7.0351 381.859 7.0351H343.391L333.706 17.5263V28.5556L324.022 32.5907V39.3158L311.917 46.848L312.724 47.386C313.262 49.807 313.531 52.2281 313.531 54.1111C313.531 67.0234 315.414 90.4269 315.683 95.807C315.952 101.187 317.297 103.608 319.987 105.76C322.677 107.912 326.443 108.988 326.443 108.988V114.368C326.443 114.368 328.864 116.252 330.747 117.597C332.63 119.211 335.321 119.749 335.321 119.749V124.86C335.321 124.86 331.016 132.123 331.016 134.544C331.016 136.965 337.204 158.754 337.204 167.363C337.204 176.24 337.204 181.889 337.204 181.889L297.391 197.222V200.45H338.549H340.97H342.315H385.894V197.222L345.005 181.889Z" fill="white"/>
<path d="M311.918 42.8129L316.76 35.5497L310.842 25.5965L320.795 18.0643L313.801 12.1462L318.105 3L297.123 4.61405C297.123 4.61405 295.778 5.69007 297.392 9.18714C298.737 12.1462 308.152 29.3626 311.918 42.8129Z" fill="white"/>
<path d="M575.543 181.351H439.157V203.409H575.543V181.351Z" fill="white"/>
<path d="M584.422 251.561H579.849V249.947H583.077V246.719H584.422V251.561Z" fill="white"/>
<path d="M575.544 251.561H567.474V250.216H575.544V251.561ZM563.439 251.561H555.369V250.216H563.439V251.561ZM551.065 251.561H542.994V250.216H551.065V251.561ZM538.959 251.561H530.889V250.216H538.959V251.561ZM526.585 251.561H518.515V250.216H526.585V251.561ZM514.48 251.561H506.41V250.216H514.48V251.561ZM502.106 251.561H494.035V250.216H502.106V251.561ZM489.731 251.561H481.661V250.216H489.731V251.561ZM477.626 251.561H469.556V250.216H477.626V251.561ZM465.252 251.561H457.181V250.216H465.252V251.561ZM453.146 251.561H445.076V250.216H453.146V251.561ZM440.772 251.561H432.702V250.216H440.772V251.561Z" fill="white"/>
<path d="M428.668 251.561H423.825V246.719H425.44V249.947H428.668V251.561Z" fill="white"/>
<path d="M425.438 242.415H424.093V233.537H425.438V242.415ZM425.438 229.233H424.093V220.356H425.438V229.233Z" fill="white"/>
<path d="M425.44 215.783H423.825V211.21H428.668V212.824H425.44V215.783Z" fill="white"/>
<path d="M575.544 212.824H567.474V211.479H575.544V212.824ZM563.439 212.824H555.369V211.479H563.439V212.824ZM551.065 212.824H542.994V211.479H551.065V212.824ZM538.959 212.824H530.889V211.479H538.959V212.824ZM526.585 212.824H518.515V211.479H526.585V212.824ZM514.48 212.824H506.41V211.479H514.48V212.824ZM502.106 212.824H494.035V211.479H502.106V212.824ZM489.731 212.824H481.661V211.479H489.731V212.824ZM477.626 212.824H469.556V211.479H477.626V212.824ZM465.252 212.824H457.181V211.479H465.252V212.824ZM453.146 212.824H445.076V211.479H453.146V212.824ZM440.772 212.824H432.702V211.479H440.772V212.824Z" fill="white"/>
<path d="M584.422 215.783H583.077V212.824H579.849V211.21H584.422V215.783Z" fill="white"/>
<path d="M584.422 242.415H583.077V233.537H584.422V242.415ZM584.422 229.233H583.077V220.356H584.422V229.233Z" fill="white"/>
<path d="M407.416 251.561H403.112V249.947H406.071V246.988H407.416V251.561Z" fill="white"/>
<path d="M399.345 251.561H391.813V250.216H399.345V251.561ZM388.047 251.561H380.515V250.216H388.047V251.561ZM376.748 251.561H369.216V250.216H376.748V251.561ZM365.45 251.561H357.918V250.216H365.45V251.561ZM354.421 251.561H346.889V250.216H354.421V251.561ZM343.123 251.561H335.591V250.216H343.123V251.561ZM331.825 251.561H324.292V250.216H331.825V251.561ZM320.526 251.561H312.994V250.216H320.526V251.561ZM309.497 251.561H301.965V250.216H309.497V251.561ZM298.199 251.561H290.667V250.216H298.199V251.561ZM286.901 251.561H279.368V250.216H286.901V251.561ZM275.602 251.561H268.07V250.216H275.602V251.561Z" fill="white"/>
<path d="M264.304 251.561H260V246.988H261.345V249.947H264.304V251.561Z" fill="white"/>
<path d="M261.345 242.415H260V233.537H261.345V242.415ZM261.345 229.233H260V220.356H261.345V229.233Z" fill="white"/>
<path d="M261.345 215.783H260V211.21H264.304V212.555H261.345V215.783Z" fill="white"/>
<path d="M399.345 212.555H391.813V211.21H399.345V212.555ZM388.047 212.555H380.515V211.21H388.047V212.555ZM376.748 212.555H369.216V211.21H376.748V212.555ZM365.45 212.555H357.918V211.21H365.45V212.555ZM354.421 212.555H346.889V211.21H354.421V212.555ZM343.123 212.555H335.591V211.21H343.123V212.555ZM331.825 212.555H324.292V211.21H331.825V212.555ZM320.526 212.555H312.994V211.21H320.526V212.555ZM309.497 212.555H301.965V211.21H309.497V212.555ZM298.199 212.555H290.667V211.21H298.199V212.555ZM286.901 212.555H279.368V211.21H286.901V212.555ZM275.602 212.555H268.07V211.21H275.602V212.555Z" fill="white"/>
<path d="M407.416 215.783H406.071V212.555H403.112V211.21H407.416V215.783Z" fill="white"/>
<path d="M407.415 242.415H406.07V233.537H407.415V242.415ZM407.415 229.233H406.07V220.356H407.415V229.233Z" fill="white"/>
<path d="M466.865 6.22784L439.696 33.3974H455.836V167.362H477.895V33.3974H494.035L466.865 6.22784Z" fill="white"/>
<path d="M573.661 33.3974L546.491 6.22784L519.052 33.3974H535.193V167.362H557.52V33.3974H573.661Z" fill="white"/>
</g>
<path d="M84.4676 285.959C82.5845 286.497 81.2395 287.035 80.4325 287.842C79.6255 288.649 79.3565 289.456 79.0875 290.532C78.8185 291.608 78.5496 293.491 78.5496 296.181V343.257C78.5496 345.409 78.5495 347.292 78.8185 348.637C79.0875 349.982 79.3565 350.789 80.1636 351.597C80.9706 352.404 82.3156 352.942 84.1986 353.48V356.977H56.222V353.48C57.836 352.942 58.9122 352.672 59.4502 352.403C59.9882 352.134 60.5263 351.596 60.7953 351.058C61.0643 350.52 61.3331 349.713 61.6021 348.637C61.8711 347.561 61.8714 345.678 61.8714 343.257V316.626C61.8714 313.667 61.8713 310.17 62.1403 306.135C62.1403 302.099 62.4092 299.409 62.4092 297.526H61.3331C60.7951 298.871 60.5261 300.485 59.9881 301.83C59.4501 303.175 58.6431 305.596 57.2981 309.363L42.7717 348.637H33.0875L17.7543 304.52C16.9473 302.099 16.1402 299.409 15.3332 296.988H14.2571C14.5261 302.906 14.7953 310.17 14.7953 318.24V343.257C14.7953 345.947 14.7953 347.83 15.0643 348.906C15.3333 349.982 15.8712 350.789 16.6782 351.597C17.4853 352.404 18.8303 352.942 20.7133 353.211V356.708H0V353.211C1.34503 352.942 2.42092 352.404 3.22794 352.135C4.03496 351.597 4.57284 351.059 5.11085 350.52C5.37986 349.713 5.64899 348.906 5.918 347.83C5.918 346.754 6.18694 345.14 6.18694 343.526V296.45C6.18694 293.76 6.187 291.877 5.918 290.801C5.64899 289.725 5.11098 288.918 4.57297 288.38C4.03496 287.842 2.42092 287.035 0.53788 286.497V283H27.7074L42.7717 327.655L59.1813 283H84.7369V285.959H84.4676Z" fill="white"/>
<path d="M127.777 349.714L126.97 349.445C124.011 352.404 121.052 354.556 118.362 355.901C115.672 357.246 112.443 357.784 109.484 357.784C106.256 357.784 103.566 357.246 101.414 356.17C98.993 355.094 97.3789 353.48 96.3029 351.328C95.2269 349.176 94.42 347.024 94.42 344.334C94.42 338.953 97.1101 334.918 102.221 331.69C107.601 328.731 115.402 326.579 126.163 325.772V320.661C126.163 317.164 125.894 314.743 125.087 312.86C124.28 310.977 123.472 309.632 122.127 309.094C121.051 308.287 119.437 308.018 117.823 308.018C116.209 308.018 114.595 308.287 113.519 308.825C112.174 309.363 111.098 310.439 110.291 312.053C109.484 313.667 108.677 315.819 108.139 318.778H97.9169V308.825C101.145 307.211 104.104 306.135 106.256 305.328C108.408 304.521 110.56 303.983 112.712 303.445C114.864 302.907 116.748 302.638 118.631 302.369C120.245 302.1 122.128 302.1 123.742 302.1C128.046 302.1 131.543 302.638 134.233 303.714C136.923 304.79 138.806 306.673 140.151 309.363C141.496 312.053 142.034 315.55 142.034 320.123V341.375C142.034 343.796 142.034 345.679 142.303 347.024C142.303 348.369 142.572 349.176 142.841 349.983C143.11 350.79 143.379 351.059 143.648 351.597C143.917 351.866 144.455 352.404 144.993 352.404C145.531 352.673 146.607 352.942 147.952 353.211V356.708H127.777V349.714ZM125.894 331.152C120.244 331.421 116.209 332.228 113.25 334.38C110.56 336.263 109.215 339.222 109.215 342.989C109.215 345.141 109.753 347.024 111.098 348.1C112.443 349.176 114.057 349.983 116.209 349.983C117.823 349.983 119.438 349.445 121.052 348.638C122.666 347.831 123.742 346.486 124.549 345.141C125.356 343.796 125.894 342.182 125.894 340.298V331.152Z" fill="white"/>
<path d="M210.9 343.796C210.9 347.293 211.438 349.445 212.245 350.79C213.052 352.135 214.666 352.942 216.818 353.211V356.708H189.918V353.211C192.07 352.942 193.415 352.135 194.222 350.79C194.76 349.445 195.298 347.024 195.298 343.796V332.497H177.274V343.796C177.274 347.562 177.543 349.983 178.35 351.059C179.157 352.135 180.502 352.942 182.385 353.211V356.708H155.485V353.211C157.637 352.942 159.251 352.135 160.058 350.79C160.865 349.445 161.403 347.293 161.403 343.796V315.819C161.403 311.784 160.865 309.363 160.058 308.287C159.251 307.211 157.637 306.673 155.485 306.135V302.638H182.385V306.135C180.233 306.404 178.888 307.211 178.081 308.556C177.274 309.901 177.005 312.053 177.005 315.819V325.503H195.029V315.819C195.029 311.784 194.491 309.363 193.684 308.287C192.877 307.211 191.532 306.673 189.649 306.404V302.907H216.549V306.404C214.128 306.673 212.783 307.48 211.976 308.825C211.169 310.17 210.631 312.591 210.631 315.819V343.796H210.9Z" fill="white"/>
<path d="M258.783 349.714L257.976 349.445C255.017 352.404 252.058 354.556 249.368 355.901C246.678 357.246 243.45 357.784 240.491 357.784C237.263 357.784 234.573 357.246 232.421 356.17C229.999 355.094 228.386 353.48 227.31 351.328C226.234 349.176 225.426 347.024 225.426 344.334C225.426 338.953 228.117 334.918 233.228 331.69C238.608 328.731 246.409 326.579 257.169 325.772V320.661C257.169 317.164 256.9 314.743 256.093 312.86C255.286 310.977 254.479 309.632 253.134 309.094C252.058 308.287 250.444 308.018 248.83 308.018C247.216 308.018 245.602 308.287 244.526 308.825C243.181 309.363 242.105 310.439 241.298 312.053C240.491 313.667 239.684 315.819 239.146 318.778H228.924V308.825C232.152 307.211 235.111 306.135 237.263 305.328C239.415 304.521 241.567 303.983 243.719 303.445C245.871 302.907 247.754 302.638 249.637 302.369C251.251 302.1 253.134 302.1 254.748 302.1C259.052 302.1 262.549 302.638 265.239 303.714C267.929 304.79 269.812 306.673 271.157 309.363C272.502 312.053 273.041 315.55 273.041 320.123V341.375C273.041 343.796 273.041 345.679 273.31 347.024C273.31 348.369 273.578 349.176 273.847 349.983C274.116 350.79 274.386 351.059 274.655 351.597C274.924 351.866 275.462 352.404 276 352.404C276.538 352.673 277.614 352.942 278.959 353.211V356.708H258.783V349.714ZM257.169 331.152C251.52 331.421 247.485 332.228 244.526 334.38C241.836 336.263 240.491 339.222 240.491 342.989C240.491 345.141 241.029 347.024 242.374 348.1C243.719 349.176 245.333 349.983 247.485 349.983C249.099 349.983 250.713 349.445 252.327 348.638C253.941 347.831 255.017 346.486 255.824 345.141C256.631 343.796 257.169 342.182 257.169 340.298V331.152Z" fill="white"/>
<path d="M336.797 347.023C333.03 351.058 329.533 353.749 325.767 355.363C322.001 356.977 317.966 357.784 313.124 357.784C304.785 357.784 298.329 355.363 294.025 350.79C289.72 346.216 287.568 339.222 287.568 330.076C287.568 324.158 288.645 319.047 290.797 314.743C292.949 310.439 296.177 307.211 300.212 305.059C304.247 302.906 308.82 301.83 314.2 301.83C317.428 301.83 320.387 302.099 322.808 302.906C325.229 303.713 327.381 304.789 329.264 306.135C331.147 307.48 332.493 309.094 333.569 310.977C334.914 313.398 335.99 315.819 336.797 318.778C337.604 321.737 337.873 325.503 337.873 329.807H303.44C303.44 336.263 304.516 341.105 306.937 344.333C309.358 347.561 312.855 348.906 317.428 348.906C320.118 348.906 322.808 348.368 324.96 347.292C327.112 346.216 329.534 344.333 332.224 341.912L336.797 347.023ZM322.27 324.158C322.001 318.509 321.463 314.474 320.118 311.784C318.773 309.094 316.621 307.749 313.662 307.749C310.972 307.749 308.551 309.094 306.937 312.053C305.323 315.012 304.247 319.047 303.978 324.427H322.27V324.158Z" fill="white"/>
<path d="M402.433 343.796C402.433 347.293 402.971 349.445 403.778 350.79C404.585 352.135 406.199 352.942 408.351 353.211V356.708H381.45V353.211C383.602 352.942 384.947 352.135 385.754 350.79C386.292 349.445 386.83 347.024 386.83 343.796V332.497H368.807V343.796C368.807 347.562 369.076 349.983 369.883 351.059C370.69 352.135 372.035 352.942 373.918 353.211V356.708H347.018V353.211C349.17 352.942 350.784 352.135 351.591 350.79C352.398 349.445 352.936 347.293 352.936 343.796V315.819C352.936 311.784 352.398 309.363 351.591 308.287C350.784 307.211 349.17 306.673 347.018 306.135V302.638H373.918V306.135C371.766 306.404 370.421 307.211 369.614 308.556C368.807 309.901 368.538 312.053 368.538 315.819V325.503H386.561V315.819C386.561 311.784 386.023 309.363 385.216 308.287C384.409 307.211 383.064 306.673 381.181 306.404V302.907H408.082V306.404C405.661 306.673 404.316 307.48 403.509 308.825C402.702 310.17 402.164 312.591 402.164 315.819V343.796H402.433Z" fill="white"/>
<path d="M423.415 315.819C423.415 312.591 423.146 310.17 422.339 308.825C421.532 307.48 419.918 306.673 417.766 306.404V302.906H444.666V306.404C442.783 306.673 441.438 307.48 440.631 308.825C439.824 310.17 439.555 312.322 439.555 315.819V326.31H440.631C443.859 326.31 446.28 325.503 448.432 323.889C450.584 322.275 452.198 319.585 453.812 315.55C456.503 309.363 458.924 305.327 461.345 303.982C463.766 302.637 466.994 301.83 470.76 301.83C472.643 301.83 474.526 302.099 476.678 302.368V314.474H469.953C469.415 312.591 468.07 311.515 466.456 311.515C464.304 311.515 462.421 313.398 460.807 316.895C458.924 321.468 456.503 324.427 453.544 326.31V326.848C459.462 328.193 464.035 331.959 467.263 338.146L470.222 343.526C472.374 347.561 473.988 349.982 475.064 351.058C476.14 352.134 477.485 352.673 478.83 352.942V356.708H457.04V353.749L450.315 339.76C448.701 336.532 447.356 334.38 446.011 333.304C444.666 332.228 442.783 331.69 440.631 331.69H439.555V340.836C439.555 345.409 439.824 348.637 440.362 349.982C440.9 351.327 442.514 352.404 444.935 352.942V356.439H418.304V352.942C420.725 352.404 422.07 351.327 422.608 350.251C423.146 348.906 423.415 345.947 423.684 340.836V315.819H423.415Z" fill="white"/>
<path d="M508.959 357.783C503.579 357.783 499.006 356.976 495.24 355.093C491.474 353.21 488.246 350.251 486.094 346.216C483.941 342.181 482.866 336.801 482.866 330.614C482.866 325.772 483.403 321.468 485.017 317.971C486.362 314.474 488.245 311.514 490.666 309.093C493.088 306.672 496.047 305.058 499.275 303.982C502.503 302.906 506.269 302.368 510.035 302.368C518.912 302.368 525.369 304.789 529.942 309.362C534.515 313.935 536.667 320.661 536.667 329.807C536.667 336.263 535.591 341.374 533.438 345.678C531.286 349.982 528.058 353.21 524.023 355.093C519.719 356.707 514.877 357.783 508.959 357.783ZM499.544 329C499.544 336.801 500.351 342.45 502.234 346.216C503.848 349.982 506.538 351.865 510.035 351.865C511.918 351.865 513.532 351.327 514.877 350.52C516.222 349.444 517.298 348.099 518.105 346.216C518.912 344.333 519.45 342.181 519.719 339.491C519.988 336.801 520.257 333.842 520.257 330.614C520.257 322.813 519.45 316.895 517.567 313.129C515.953 309.362 513.263 307.21 510.035 307.21C507.614 307.21 505.462 308.017 504.117 309.631C502.503 311.245 501.427 313.667 500.889 316.626C500.351 319.585 499.544 324.158 499.544 329Z" fill="white"/>
<path d="M546.62 356.977V353.48C549.042 353.211 550.656 352.403 551.463 351.058C552.27 349.713 552.808 347.292 552.808 343.795V316.357C552.808 312.591 552.539 310.17 551.732 308.825C550.925 307.48 549.31 306.941 546.889 306.672V303.175H579.439C586.433 303.175 591.545 303.982 594.773 305.866C598.27 307.749 599.884 310.977 599.884 315.55C599.884 318.778 598.808 321.468 596.387 323.889C593.966 326.31 590.737 327.655 586.164 328.462V329C595.848 330.614 600.691 334.918 600.691 342.181C600.691 352.135 593.427 357.246 579.17 357.246H546.62V356.977ZM568.41 308.825V325.772H574.059C580.246 325.772 583.205 322.813 583.205 316.895C583.205 313.398 582.129 311.246 579.977 309.901C577.825 308.825 574.059 308.287 568.41 308.825ZM568.41 331.959V350.79C570.024 351.059 571.907 351.058 573.79 351.058C580.246 351.058 583.474 347.83 583.474 341.374C583.474 335.187 580.246 331.959 574.059 331.959H568.41Z" fill="white"/>
<path d="M0 445.743V443.591C1.88304 443.053 2.95913 442.515 3.76615 441.977C4.30416 441.439 4.84217 440.632 5.11118 439.556C5.38018 438.48 5.38012 436.866 5.38012 434.713V396.515C5.38012 394.363 5.38018 393.017 5.11118 391.941C4.84217 391.134 4.84204 390.327 4.30403 389.789C4.03502 389.251 3.49701 388.982 2.959 388.444C2.42099 388.175 1.34503 387.906 0 387.368V385.216H24.2105C28.7836 385.216 32.5496 385.754 35.5086 386.83C38.4677 387.906 40.3508 389.251 41.9649 391.403C43.5789 393.556 44.117 395.977 44.117 398.936C44.117 401.626 43.5791 403.778 42.5031 405.661C41.427 407.544 40.3509 409.158 38.7369 410.234C37.1229 411.579 34.9707 412.655 32.5496 413.731V414C36.5847 415.076 39.5439 416.959 41.6959 419.649C43.848 422.07 44.9239 425.298 44.9239 428.526C44.9239 432.561 44.1168 435.789 42.2338 438.211C40.3508 440.632 37.9299 442.515 34.7018 443.591C31.4738 444.667 27.7075 445.205 23.1344 445.205H0V445.743ZM21.2515 412.386C25.8246 412.386 29.0525 411.31 31.4736 409.158C33.8946 407.006 34.9708 403.778 34.9708 399.743C34.9708 397.591 34.7017 395.977 33.8947 394.632C33.0877 393.286 32.2806 392.211 31.2046 391.403C30.1286 390.596 28.7836 390.058 27.1695 389.789C25.5555 389.52 23.9414 389.251 22.0584 389.251C20.9823 389.251 19.3684 389.251 17.7543 389.251C16.1403 389.251 14.5263 389.251 13.7192 389.52V412.386H21.2515ZM13.4503 441.439C15.6023 441.708 18.0233 441.708 20.7133 441.708C24.4794 441.708 27.4386 441.17 29.5906 440.363C31.7427 439.286 33.3566 437.942 34.1636 436.058C35.2396 434.175 35.5086 431.754 35.5086 428.795C35.5086 425.836 34.9707 423.684 33.8947 421.801C32.8187 419.918 31.2048 418.573 29.0528 417.766C26.9007 416.959 23.9416 416.421 19.9065 416.421H13.1814V441.439H13.4503Z" fill="white"/>
<path d="M79.6257 445.743V443.591C81.5087 443.053 82.8538 442.246 83.3918 441.439C83.9298 440.363 84.199 438.749 84.199 436.059V407.275H74.7838C73.7077 417.228 72.3625 425.567 70.4794 431.754C68.5964 438.211 66.7134 442.246 64.8304 443.86C62.9473 445.743 60.7953 446.55 58.1052 446.55C55.6842 446.55 53.8012 446.281 52.4561 445.743V436.328H56.2223C56.4913 438.749 57.2983 440.094 58.9124 440.094C61.6024 440.094 63.7544 436.328 65.9064 429.064C67.7895 421.801 68.8654 415.883 68.8654 411.579C68.8654 408.082 67.5204 406.199 64.8304 405.661V403.509H96.5732V405.661C94.6901 405.93 93.345 406.737 92.807 407.813C92.269 408.889 91.7309 410.772 91.7309 413.193V435.79C91.7309 438.48 92.0001 440.094 92.5381 441.17C93.0761 442.246 94.4212 442.784 96.3042 443.322V445.474H79.6257V445.743Z" fill="white"/>
<path d="M132.352 439.556L131.814 439.287C129.124 441.977 126.972 443.86 124.551 444.936C122.399 446.012 119.978 446.55 117.287 446.55C115.135 446.55 112.984 446.012 111.369 445.205C109.755 444.398 108.41 443.053 107.334 441.439C106.527 439.825 105.989 437.942 105.989 436.059C105.989 431.755 108.141 428.527 112.446 426.105C116.75 423.684 123.206 422.339 131.545 422.07V419.111C131.545 416.152 131.276 413.731 130.738 411.848C130.2 409.965 129.124 408.889 128.048 408.082C126.703 407.275 125.089 406.737 122.937 406.737C120.516 406.737 118.902 407.275 117.287 408.62C115.673 409.965 114.867 411.579 114.06 414H108.141V408.351C111.1 407.006 113.253 405.661 115.136 405.123C117.019 404.316 118.902 403.778 120.785 403.509C122.668 403.24 124.551 402.971 126.434 402.971C129.393 402.971 131.814 403.509 133.428 404.316C135.311 405.123 136.656 406.737 137.463 408.62C138.27 410.503 138.808 413.462 138.808 417.228V432.562C138.808 434.714 138.808 436.328 138.808 437.135C138.808 437.942 138.808 438.749 139.077 439.556C139.346 440.363 139.346 440.901 139.615 441.439C139.884 441.977 140.422 442.246 140.96 442.515C141.498 442.784 142.574 443.053 143.65 443.591V445.743H131.545L132.352 439.556ZM131.545 425.567C125.627 425.567 121.054 426.375 118.095 427.989C115.136 429.603 113.521 431.755 113.521 434.983C113.521 436.597 113.79 437.942 114.597 439.018C115.404 440.094 116.211 440.632 117.287 440.901C118.364 441.17 119.44 441.439 121.054 441.439C122.937 441.439 124.82 440.901 126.434 440.094C128.048 439.018 129.393 437.942 130.2 436.328C131.007 434.714 131.545 433.369 131.545 431.755V425.567Z" fill="white"/>
<path d="M190.725 460C190.187 455.965 189.38 452.737 188.842 450.854C188.304 448.971 187.228 447.626 186.421 446.819C185.345 446.012 183.731 445.742 181.31 445.742H162.48C160.059 445.742 157.906 446.549 156.561 448.433C155.216 450.316 154.14 454.082 153.333 460H149.298V441.707H154.409C157.638 437.403 160.058 432.292 161.672 426.643C163.556 420.994 164.363 415.883 164.363 411.041C164.363 407.813 163.017 405.93 160.327 405.392V403.24H193.146V405.392C191.263 405.661 189.918 406.468 189.111 407.544C188.304 408.62 188.035 410.503 188.035 412.924V441.707H194.76V459.731H190.725V460ZM180.772 407.006H170.281C168.936 422.07 165.708 433.637 160.327 441.976H181.041V407.006H180.772Z" fill="white"/>
<path d="M230.808 445.743V443.591C232.422 443.053 233.767 442.515 234.305 441.439C234.843 440.632 235.381 438.749 235.381 435.79V417.228L216.013 437.404C216.013 439.287 216.281 440.901 217.088 441.708C217.626 442.515 218.971 443.053 220.585 443.591V445.743H203.638V443.591C205.521 443.053 206.866 442.246 207.404 441.439C207.942 440.363 208.48 438.749 208.48 436.059V413.462C208.48 410.772 208.211 408.889 207.404 408.082C206.866 407.006 205.521 406.468 203.638 405.93V403.778H220.585V405.93C218.702 406.199 217.626 407.006 216.819 408.082C216.281 409.158 215.743 410.772 215.743 413.731V432.024L235.112 411.848C235.112 408.62 233.498 406.468 230.539 406.199V404.047H247.486V406.199C245.603 406.468 244.527 407.275 243.72 408.082C242.913 409.158 242.644 410.772 242.644 413.731V436.328C242.644 439.018 242.913 440.901 243.72 441.708C244.527 442.515 245.603 443.322 247.486 443.86V446.012H230.808V445.743Z" fill="white"/>
<path d="M290.526 404.585V413.731H284.877C284.339 411.848 283.801 410.234 282.994 409.158C282.187 408.082 281.38 407.275 280.304 406.737C279.228 406.199 278.152 406.199 276.807 406.199C274.655 406.199 273.041 406.737 271.427 408.082C269.813 409.427 268.468 411.31 267.661 414.269C266.854 416.959 266.316 420.187 266.316 424.222C266.316 426.643 266.585 429.065 266.854 431.217C267.123 433.369 267.93 434.983 268.737 436.597C269.544 437.942 270.62 439.287 272.234 440.094C273.579 440.901 275.462 441.439 277.614 441.439C279.766 441.439 281.649 441.17 283.263 440.363C285.146 439.556 286.76 438.211 288.643 436.059L291.064 439.018C289.45 440.632 288.105 441.977 287.029 442.784C285.953 443.591 284.608 444.398 283.263 444.936C281.918 445.474 280.573 446.012 279.497 446.281C278.152 446.55 276.807 446.819 275.193 446.819C269.544 446.819 265.24 444.936 262.55 441.17C259.86 437.404 258.246 432.024 258.246 425.029C258.246 420.725 259.053 416.69 260.667 413.462C262.281 409.965 264.702 407.544 267.661 405.661C270.62 403.778 274.117 402.971 277.883 402.971C280.304 402.971 282.456 403.24 284.608 403.509C286.491 403.509 288.374 403.778 290.526 404.585Z" fill="white"/>
<path d="M322.808 445.743V443.591C324.691 443.053 326.036 442.246 326.574 441.439C327.112 440.363 327.381 438.749 327.381 436.059V407.275H317.966C316.89 417.228 315.545 425.567 313.662 431.754C311.779 438.211 309.896 442.246 308.013 443.86C306.13 445.743 303.978 446.55 301.288 446.55C298.867 446.55 296.984 446.281 295.639 445.743V436.328H299.405C299.674 438.749 300.481 440.094 302.095 440.094C304.785 440.094 306.937 436.328 309.089 429.064C310.972 421.801 312.048 415.883 312.048 411.579C312.048 408.082 310.703 406.199 308.013 405.661V403.509H339.756V405.661C337.873 405.93 336.527 406.737 335.989 407.813C335.451 408.889 334.913 410.772 334.913 413.193V435.79C334.913 438.48 335.182 440.094 335.72 441.17C336.258 442.246 337.603 442.784 339.486 443.322V445.474H322.808V445.743Z" fill="white"/>
<path d="M375.532 439.556L374.994 439.287C372.304 441.977 370.151 443.86 367.73 444.936C365.578 446.012 363.157 446.55 360.467 446.55C358.315 446.55 356.163 446.012 354.549 445.205C352.935 444.398 351.59 443.053 350.514 441.439C349.707 439.825 349.169 437.942 349.169 436.059C349.169 431.755 351.321 428.527 355.625 426.105C359.929 423.684 366.386 422.339 374.725 422.07V419.111C374.725 416.152 374.456 413.731 373.918 411.848C373.38 409.965 372.304 408.889 371.227 408.082C369.882 407.275 368.268 406.737 366.116 406.737C363.695 406.737 362.081 407.275 360.467 408.62C358.853 409.965 358.046 411.579 357.239 414H351.321V408.351C354.28 407.006 356.432 405.661 358.315 405.123C360.198 404.316 362.081 403.778 363.964 403.509C365.847 403.24 367.73 402.971 369.614 402.971C372.573 402.971 374.994 403.509 376.608 404.316C378.491 405.123 379.836 406.737 380.643 408.62C381.45 410.503 381.988 413.462 381.988 417.228V432.562C381.988 434.714 381.988 436.328 381.988 437.135C381.988 437.942 381.988 438.749 382.257 439.556C382.526 440.363 382.526 440.901 382.795 441.439C383.064 441.977 383.602 442.246 384.14 442.515C384.678 442.784 385.754 443.053 386.83 443.591V445.743H374.725L375.532 439.556ZM374.725 425.567C368.807 425.567 364.233 426.375 361.274 427.989C358.315 429.603 356.701 431.755 356.701 434.983C356.701 436.597 356.97 437.942 357.777 439.018C358.584 440.094 359.391 440.632 360.467 440.901C361.543 441.17 362.619 441.439 364.233 441.439C366.116 441.439 367.999 440.901 369.614 440.094C371.228 439.018 372.573 437.942 373.38 436.328C374.187 434.714 374.725 433.369 374.725 431.755V425.567Z" fill="white"/>
<path d="M395.439 445.743V443.591C397.322 443.053 398.667 442.246 399.205 441.439C399.743 440.363 400.281 438.749 400.281 436.059V413.462C400.281 410.503 400.012 408.62 399.205 407.813C398.398 407.006 397.322 406.199 395.439 405.93V403.778H414.807C420.725 403.778 425.029 404.585 427.719 406.199C430.409 407.813 431.754 410.234 431.754 414C431.754 418.304 429.064 421.532 423.684 423.685V424.222C429.871 425.837 433.099 429.334 433.099 434.714C433.099 438.48 431.754 441.439 429.064 443.322C426.374 445.474 421.532 446.281 414.807 446.281H395.439V445.743ZM407.813 407.006V422.07H413.193C417.228 422.07 419.918 421.532 421.532 420.187C423.146 418.842 423.684 416.959 423.684 414.269C423.684 411.579 422.877 409.696 421.263 408.62C419.649 407.544 416.959 406.737 412.924 406.737L407.813 407.006ZM407.813 425.299V442.246C409.427 442.246 411.31 442.515 413.462 442.515C417.766 442.515 420.725 441.708 422.339 440.363C423.953 438.749 424.76 436.866 424.76 433.907C424.76 430.948 423.953 429.065 422.339 427.72C420.725 426.375 418.035 425.568 414 425.568H407.813V425.299Z" fill="white"/>
<path d="M233.798 0H6.20205C2.69643 0 0 3.23122 0 7.53957V247.46C0 251.5 2.69643 255 6.20205 255H233.798C237.303 255 240 251.769 240 247.46V7.53957C240 3.23122 237.303 0 233.798 0ZM85.7526 119.826H81.9776H73.0786C69.573 119.826 66.8762 123.057 66.8762 127.096V215.956C66.8762 223.226 71.191 228.073 75.5056 229.419V236.151H28.3146H14.0223V229.419C22.3819 227.804 22.382 221.61 22.9213 215.956L43.1461 42.8141C43.6854 37.4287 39.3706 30.1584 34.5167 30.1584L35.0562 24.5037H78.4718C81.9775 24.5037 85.483 27.7349 85.483 31.774V119.826H85.7526ZM142.652 119.826H139.146C135.64 119.826 133.214 123.057 133.214 127.096V235.074H103.011V127.096C103.011 123.057 100.045 119.826 96.5391 119.826H93.3033L92.2246 32.0433C92.2246 28.0042 96.0001 24.773 99.5057 24.773C113.528 24.773 122.157 24.773 136.449 24.773C139.955 24.773 142.652 28.0042 142.652 32.0433V119.826ZM221.393 236.151H207.101H159.91V229.419C164.225 228.073 168.539 223.226 168.539 215.956V127.096C168.539 123.057 165.843 119.826 162.337 119.826H153.438H149.933V32.0433C149.933 28.0042 153.708 24.773 156.944 24.773H200.359L200.899 30.4276C196.045 30.4276 191.73 37.698 192.269 43.0834L212.494 216.225C213.034 221.88 213.034 228.073 221.393 229.689V236.151Z" fill="white"/>
</svg>
