<svg width="218" height="432" viewBox="0 0 218 432" fill="none" xmlns="http://www.w3.org/2000/svg">
<path d="M74.2 215.8V204.5C74.2 200.3 77.6 197 81.7 197H82.2C86.4 197 89.8 200.4 89.8 204.5V219.5C94.5 220.3 98.8 220.7 102.2 220.9V204.5C102.2 200.3 105.6 197 109.7 197H110.2C114.4 197 117.7 200.4 117.7 204.5V220.9C121.1 220.7 125.4 220.3 130.1 219.5V204.5C130.1 200.3 133.5 197 137.7 197H138.2C142.4 197 145.7 200.4 145.7 204.5V215.8C161.8 210.5 177.3 200 177.3 179.1V174.3H136.7C132.5 174.3 129.1 170.9 129.1 166.8V166.3C129.1 162.1 132.5 158.8 136.7 158.8H177.3V146.4H136.7C132.5 146.4 129.1 143 129.1 138.9V138.4C129.1 134.2 132.5 130.9 136.7 130.9H177.3V118.5H136.7C132.5 118.5 129.1 115.1 129.1 111V110.5C129.1 106.3 132.5 103 136.7 103H177.3V90.2H136.7C132.5 90.2 129.1 86.8 129.1 82.7V82.2C129.1 78 132.5 74.7 136.7 74.7H177.3V62.2H136.7C132.5 62.2 129.1 58.8 129.1 54.7V54.2C129.1 50 132.5 46.7 136.7 46.7H177.3V41.9C177.3 21 161.8 10.5 145.7 5.2V16.5C145.7 20.7 142.3 24 138.2 24H137.7C133.5 24 130.1 20.6 130.1 16.5V1.5C125.4 0.7 121.1 0.3 117.7 0.1V16.5C117.7 20.7 114.3 24 110.2 24H109.7C105.5 24 102.2 20.6 102.2 16.5V0C98.8 0.2 94.5 0.6 89.8 1.4V16.4C89.8 20.6 86.4 23.9 82.2 23.9H81.7C77.5 23.9 74.2 20.5 74.2 16.4V5.1C58 10.4 42.5 20.9 42.5 41.8V46.6H83.1C87.3 46.6 90.6 50 90.6 54.1V54.6C90.6 58.8 87.2 62.1 83.1 62.1H42.5V74.5H83.1C87.3 74.5 90.6 77.9 90.6 82V82.5C90.6 86.7 87.2 90 83.1 90H42.5V102.4H83.1C87.3 102.4 90.6 105.8 90.6 109.9V110.4C90.6 114.6 87.2 117.9 83.1 117.9H42.5V130.3H83.1C87.3 130.3 90.6 133.7 90.6 137.8V138.3C90.6 142.5 87.2 145.8 83.1 145.8H42.5V158.2H83.1C87.3 158.2 90.6 161.6 90.6 165.7V166.2C90.6 170.4 87.2 173.7 83.1 173.7H42.5V178.5C42.5 200 58 210.5 74.2 215.8Z" fill="black"/>
<path d="M208.6 369.5C197.6 366.9 124.4 363.7 124.4 313.6C124.4 310.6 121.1 308.2 118.1 308H100.9C98 308.2 94.6 310.6 94.6 313.6C94.6 363.7 21.3 366.9 10.4 369.5C5.5 369.8 3 372.8 3 376.9V388.1C3 388.6 3.1 389.2 3.2 389.7V390.4C3.2 390.4 13.3 431.5 108.3 431.5C189.3 431.5 209.9 401.7 214.3 392.8C215.4 391.5 216 389.9 216 388.1V376.9C216 372.8 213.5 369.8 208.6 369.5Z" fill="black"/>
<path d="M209.7 110.1H194C189.4 110.1 185.6 113.8 185.6 118.5V118.7C185.6 123.1 189.1 126.8 193.4 127V201.1C193.4 222.3 176.1 239.6 154.9 239.6H63C41.8 239.6 24.5 222.3 24.5 201.1V127C28.9 126.7 32.3 123.1 32.3 118.7V118.5C32.3 113.9 28.6 110.1 23.9 110.1H8.4C3.8 110.1 0 113.8 0 118.5V118.7C0 123.1 3.5 126.8 7.8 127V201.1C7.8 231.5 32.6 256.3 63 256.3H101.3V294.1H118.5V256.3H155C185.4 256.3 210.2 231.5 210.2 201.1V127C214.6 126.7 218 123.1 218 118.7V118.5C218 113.8 214.3 110.1 209.7 110.1Z" fill="black"/>
</svg>
