<?xml version="1.0" encoding="utf-8"?>
<!-- Generator: Adobe Illustrator 22.0.1, SVG Export Plug-In . SVG Version: 6.00 Build 0)  -->
<svg version="1.1" id="Layer_1" xmlns="http://www.w3.org/2000/svg" xmlns:xlink="http://www.w3.org/1999/xlink" x="0px" y="0px"
	 viewBox="0 0 608.7 110.7" style="enable-background:new 0 0 608.7 110.7;" xml:space="preserve">
<style type="text/css">
	.st0{opacity:0.46;}
</style>
<g class="st0">
	<g>
		<path d="M119.9,95l1.3-2.3h1.3l-1.9,3.1l1.9,3.2h-1.3l-1.3-2.3l-1.3,2.3h-1.3l1.9-3.2l-1.9-3.1h1.3L119.9,95z"/>
		<path d="M124.4,96.7V99h-1.1v-6.3h2.4c0.7,0,1.3,0.2,1.7,0.5s0.6,0.8,0.6,1.4s-0.2,1.1-0.6,1.4s-1,0.5-1.7,0.5h-1.3V96.7z
			 M124.4,95.8h1.3c0.4,0,0.7-0.1,0.9-0.3c0.2-0.2,0.3-0.4,0.3-0.8c0-0.3-0.1-0.6-0.3-0.8c-0.2-0.2-0.5-0.3-0.9-0.3h-1.3V95.8z"/>
		<path d="M131.2,96l1.3-3.3h1.2l-2.2,5.2l-0.2,0.4c-0.3,0.5-0.8,0.8-1.4,0.8h-0.4v-0.9c0.1,0,0.2,0,0.4,0c0.3,0,0.5-0.1,0.7-0.4
			l0.2-0.5l-2.1-4.6h1.2L131.2,96z"/>
		<path d="M139.4,99h-1.1v-5.4h-2.8V99h-1.1v-6.3h4.9V99H139.4z"/>
		<path d="M142.6,96.3h-0.7V99h-1.1v-6.3h1.1v2.6h0.6l1.8-2.6h1.3l-2.1,3l2.3,3.3h-1.3L142.6,96.3z"/>
		<path d="M151.2,96c0,0.6-0.1,1.2-0.3,1.6c-0.2,0.5-0.5,0.8-0.9,1.1c-0.4,0.2-0.8,0.4-1.4,0.4c-0.5,0-1-0.1-1.4-0.4
			c-0.4-0.2-0.7-0.6-0.9-1.1s-0.3-1-0.3-1.6v-0.4c0-0.6,0.1-1.1,0.3-1.6s0.5-0.8,0.9-1.1c0.4-0.2,0.8-0.4,1.4-0.4s1,0.1,1.4,0.4
			c0.4,0.2,0.7,0.6,0.9,1.1s0.3,1,0.3,1.6V96z M150.1,95.7c0-0.7-0.1-1.2-0.4-1.6c-0.3-0.4-0.6-0.6-1.1-0.6s-0.8,0.2-1.1,0.6
			s-0.4,0.9-0.4,1.6V96c0,0.7,0.1,1.2,0.4,1.6c0.3,0.4,0.6,0.6,1.1,0.6s0.9-0.2,1.1-0.6c0.3-0.4,0.4-0.9,0.4-1.6V95.7z"/>
		<path d="M155.9,96.2h-2.6v1.9h3V99h-4.1v-6.3h4.1v0.9h-3v1.7h2.6V96.2z"/>
	</g>
	<g>
		<g>
			<path d="M180,98.5h-0.9v-2.4h-2.4v2.4h-0.9v-5.4h0.9v2.3h2.4v-2.3h0.9V98.5z"/>
			<path d="M183.9,96.1h-2.2v1.7h2.6v0.8h-3.6v-5.4h3.5V94h-2.6v1.5h2.2v0.6H183.9z"/>
			<path d="M187.8,96.2h-0.6v2.3h-0.9v-5.4h0.9v2.3h0.5l1.6-2.3h1.2l-1.9,2.6l2,2.8h-1.1L187.8,96.2z"/>
			<path d="M193.8,97.3h-2.1l-0.4,1.3h-1l2.1-5.4h0.8l2.1,5.4h-1L193.8,97.3z M192,96.5h1.6l-0.8-2.3L192,96.5z"/>
			<path d="M199.8,98.5h-0.9v-2.4h-2.4v2.4h-0.9v-5.4h0.9v2.3h2.4v-2.3h0.9V98.5z"/>
			<path d="M204.4,93.9h-1.7v4.7h-0.9v-4.7h-1.7v-0.8h4.3L204.4,93.9L204.4,93.9z"/>
			<path d="M209,96c0,0.5-0.1,1-0.3,1.4s-0.4,0.7-0.8,0.9c-0.3,0.2-0.7,0.3-1.2,0.3c-0.4,0-0.8-0.1-1.2-0.3
				c-0.3-0.2-0.6-0.5-0.8-0.9s-0.3-0.9-0.3-1.4v-0.3c0-0.5,0.1-1,0.3-1.4s0.5-0.7,0.8-0.9c0.3-0.2,0.7-0.3,1.2-0.3
				c0.4,0,0.8,0.1,1.2,0.3s0.6,0.5,0.8,0.9s0.3,0.9,0.3,1.4V96z M208,95.7c0-0.6-0.1-1.1-0.3-1.4s-0.6-0.5-1-0.5s-0.7,0.2-1,0.5
				c-0.2,0.3-0.3,0.8-0.4,1.4V96c0,0.6,0.1,1.1,0.3,1.4s0.6,0.5,1,0.5s0.7-0.2,1-0.5s0.3-0.8,0.3-1.4L208,95.7L208,95.7z"/>
			<path d="M209.5,98.5v-5.4h1.9c0.6,0,1.1,0.1,1.4,0.4c0.3,0.2,0.5,0.6,0.5,1.1c0,0.2-0.1,0.5-0.2,0.7c-0.1,0.2-0.3,0.4-0.6,0.5
				c0.3,0.1,0.5,0.2,0.7,0.5s0.2,0.5,0.2,0.8c0,0.5-0.2,0.9-0.5,1.2s-0.8,0.4-1.4,0.4h-2V98.5z M210.5,95.4h0.9
				c0.3,0,0.5-0.1,0.7-0.2s0.2-0.3,0.2-0.6c0-0.3-0.1-0.5-0.2-0.6s-0.4-0.2-0.7-0.2h-0.9V95.4z M210.5,96.1v1.7h1.1
				c0.3,0,0.5-0.1,0.7-0.2s0.3-0.4,0.3-0.6c0-0.6-0.3-0.9-0.9-0.9H210.5z"/>
			<path d="M217,97.3h-2.1l-0.4,1.3h-1l2.1-5.4h0.8l2.1,5.4h-1L217,97.3z M215.1,96.5h1.6l-0.8-2.3L215.1,96.5z"/>
			<path d="M222.1,93.9h-1.7v4.7h-0.9v-4.7h-1.7v-0.8h4.3L222.1,93.9L222.1,93.9z"/>
			<path d="M223.4,95.2h1.1c0.4,0,0.7,0.1,1,0.2s0.5,0.3,0.7,0.6c0.2,0.3,0.2,0.5,0.2,0.9c0,0.5-0.2,0.9-0.5,1.2
				c-0.3,0.3-0.8,0.5-1.4,0.5h-2.1v-5.4h0.9v2H223.4z M223.4,95.9v1.8h1.1c0.3,0,0.6-0.1,0.7-0.3c0.2-0.2,0.3-0.4,0.3-0.7
				c0-0.3-0.1-0.5-0.3-0.7s-0.4-0.2-0.7-0.2L223.4,95.9L223.4,95.9z"/>
		</g>
	</g>
	<g>
		<path d="M141.1,77.1c0,0,0-2.2,0-5.4c0-3.3,2.3-11.3,2.3-12.2s-1.6-3.6-1.6-3.6V54c0,0,1-0.2,1.7-0.8s1.6-1.2,1.6-1.2v-2
			c0,0,1.4-0.5,2.4-1.2c1-0.8,1.5-1.7,1.6-3.7s0.8-10.8,0.8-15.5c0-4.8,4.3-14.4,4.9-15.8s0-1.7,0-1.7h-14.3l-3.6,3.9v4.1l-3.6,1.5
			v2.5l-4.5,2.8l0.3,0.2c0.2,0.9,0.3,1.8,0.3,2.5c0,4.8,0.7,13.5,0.8,15.5s0.6,2.9,1.6,3.7s2.4,1.2,2.4,1.2v2c0,0,0.9,0.7,1.6,1.2
			c0.7,0.6,1.7,0.8,1.7,0.8v1.9c0,0-1.6,2.7-1.6,3.6c0,0.9,2.3,9,2.3,12.2c0,3.3,0,5.4,0,5.4l-14.8,5.7V84h15.3h0.9h0.5H156v-1.2
			L141.1,77.1z"/>
		<path d="M128.8,25.4l1.8-2.7l-2.2-3.7l3.7-2.8l-2.6-2.2l1.6-3.4l-7.8,0.6c0,0-0.5,0.4,0.1,1.7C123.9,14,127.4,20.5,128.8,25.4z"/>
	</g>
	<rect x="176.1" y="77" width="50.7" height="8.2"/>
	<g>
		<polygon points="230.1,103 228.4,103 228.4,102.5 229.6,102.5 229.6,101.3 230.1,101.3 		"/>
		<path d="M226.9,103h-3v-0.5h3V103z M222.3,103h-3v-0.5h3V103z M217.8,103h-3v-0.5h3V103z M213.2,103h-3v-0.5h3V103z M208.6,103h-3
			v-0.5h3V103z M204.1,103h-3v-0.5h3V103z M199.5,103h-3v-0.5h3V103z M195,103h-3v-0.5h3V103z M190.4,103h-3v-0.5h3V103z M185.9,103
			h-3v-0.5h3V103z M181.3,103h-3v-0.5h3V103z M176.7,103h-3v-0.5h3V103z"/>
		<polygon points="172.2,103 170.4,103 170.4,101.3 171,101.3 171,102.5 172.2,102.5 		"/>
		<path d="M171,99.7h-0.5v-3.3h0.5V99.7z M171,94.7h-0.5v-3.3h0.5V94.7z"/>
		<polygon points="171,89.8 170.4,89.8 170.4,88.1 172.2,88.1 172.2,88.6 171,88.6 		"/>
		<path d="M226.9,88.6h-3v-0.5h3V88.6z M222.3,88.6h-3v-0.5h3V88.6z M217.8,88.6h-3v-0.5h3V88.6z M213.2,88.6h-3v-0.5h3V88.6z
			 M208.6,88.6h-3v-0.5h3V88.6z M204.1,88.6h-3v-0.5h3V88.6z M199.5,88.6h-3v-0.5h3V88.6z M195,88.6h-3v-0.5h3V88.6z M190.4,88.6h-3
			v-0.5h3V88.6z M185.9,88.6h-3v-0.5h3V88.6z M181.3,88.6h-3v-0.5h3V88.6z M176.7,88.6h-3v-0.5h3V88.6z"/>
		<polygon points="230.1,89.8 229.6,89.8 229.6,88.6 228.4,88.6 228.4,88.1 230.1,88.1 		"/>
		<path d="M230.1,99.7h-0.5v-3.3h0.5V99.7z M230.1,94.7h-0.5v-3.3h0.5V94.7z"/>
	</g>
	<g>
		<polygon points="164.4,103 162.7,103 162.7,102.5 163.8,102.5 163.8,101.4 164.4,101.4 		"/>
		<path d="M161.3,103h-2.8v-0.5h2.8V103z M157.1,103h-2.8v-0.5h2.8V103z M153,103h-2.8v-0.5h2.8V103z M148.8,103H146v-0.5h2.8V103z
			 M144.6,103h-2.8v-0.5h2.8V103z M140.4,103h-2.8v-0.5h2.8V103z M136.2,103h-2.8v-0.5h2.8V103z M132.1,103h-2.8v-0.5h2.8V103z
			 M127.9,103h-2.8v-0.5h2.8V103z M123.7,103h-2.8v-0.5h2.8V103z M119.5,103h-2.8v-0.5h2.8V103z M115.3,103h-2.8v-0.5h2.8V103z"/>
		<polygon points="111.2,103 109.5,103 109.5,101.4 110,101.4 110,102.5 111.2,102.5 		"/>
		<path d="M110,99.7h-0.5v-3.3h0.5V99.7z M110,94.7h-0.5v-3.3h0.5V94.7z"/>
		<polygon points="110,89.8 109.5,89.8 109.5,88.1 111.2,88.1 111.2,88.6 110,88.6 		"/>
		<path d="M161.3,88.6h-2.8v-0.5h2.8V88.6z M157.1,88.6h-2.8v-0.5h2.8V88.6z M153,88.6h-2.8v-0.5h2.8V88.6z M148.8,88.6H146v-0.5
			h2.8V88.6z M144.6,88.6h-2.8v-0.5h2.8V88.6z M140.4,88.6h-2.8v-0.5h2.8V88.6z M136.2,88.6h-2.8v-0.5h2.8V88.6z M132.1,88.6h-2.8
			v-0.5h2.8V88.6z M127.9,88.6h-2.8v-0.5h2.8V88.6z M123.7,88.6h-2.8v-0.5h2.8V88.6z M119.5,88.6h-2.8v-0.5h2.8V88.6z M115.3,88.6
			h-2.8v-0.5h2.8V88.6z"/>
		<polygon points="164.4,89.8 163.8,89.8 163.8,88.6 162.7,88.6 162.7,88.1 164.4,88.1 		"/>
		<path d="M164.4,99.7h-0.5v-3.3h0.5V99.7z M164.4,94.7h-0.5v-3.3h0.5V94.7z"/>
	</g>
	<g>
		<polygon points="186.4,11.8 176.3,21.9 182.3,21.9 182.3,71.8 190.5,71.8 190.5,21.9 196.5,21.9 		"/>
		<polygon points="226.1,21.9 216,11.8 205.9,21.9 211.9,21.9 211.9,71.8 220.1,71.8 220.1,21.9 		"/>
	</g>
</g>
<g>
	<path d="M268.1,90.4h0.2l8.9-35.3h12.1v47.6h-9.1v-30H280l-8.6,30h-6.2L256.6,73h-0.2v29.7h-9.2V55.2h12L268.1,90.4z"/>
	<path d="M318.8,92.4h-11.9l-2.7,10.3h-9.6l13.5-47.6h9.5l13.5,47.6h-9.6L318.8,92.4z M308.8,85.2h8.1l-4-15.1h-0.2L308.8,85.2z"/>
	<path d="M369.3,102.7h-9.2V82.9h-15.3v19.8h-9.2V55.2h9.2v20.5h15.3V55.2h9.2V102.7z"/>
	<path d="M399,92.4h-11.9l-2.7,10.3h-9.6l13.5-47.6h9.5l13.5,47.6h-9.6L399,92.4z M389,85.2h8.1l-4-15.1H393L389,85.2z"/>
	<path d="M439.6,81.7h-14.5v13.8h17.4v7.2h-26.6V55.2h26.6v7.2h-17.3v12.2h14.5v7.1H439.6z"/>
	<path d="M482.7,102.7h-9.2V82.9h-15.3v19.8H449V55.2h9.2v20.5h15.3V55.2h9.2V102.7z"/>
	<path d="M502.4,82.8h-2.5v20h-9.2V55.2h9.2v19.5h1.9l10.1-19.5h11.4l-13.7,21.7l14.7,25.8h-11.8L502.4,82.8z"/>
	<path d="M561.4,85.6c0,5.6-1.6,10-4.7,13.1c-3.2,3.1-7.4,4.7-12.6,4.7s-9.4-1.6-12.6-4.7s-4.7-7.5-4.7-13.1V72.4
		c0-5.6,1.6-9.9,4.7-13.1c3.1-3.2,7.3-4.8,12.6-4.8c5.2,0,9.5,1.6,12.6,4.8c3.2,3.2,4.8,7.5,4.8,13.1L561.4,85.6L561.4,85.6z
		 M552.2,72.3c0-3.5-0.7-6.1-2.1-7.8c-1.4-1.8-3.4-2.6-6.1-2.6c-2.7,0-4.7,0.9-6,2.6c-1.4,1.8-2,4.4-2,7.9v13.4c0,3.5,0.7,6.2,2,7.9
		c1.4,1.8,3.4,2.6,6.1,2.6c2.7,0,4.7-0.9,6.1-2.6s2.1-4.4,2.1-7.9L552.2,72.3L552.2,72.3z"/>
	<path d="M568.5,102.7V55.2h13.6c5,0,8.8,1.1,11.6,3.2c2.8,2.2,4.1,5.4,4.1,9.7c0,2.2-0.5,4.2-1.5,6s-2.5,3.1-4.5,3.9
		c2.7,0.5,4.6,1.8,5.9,3.8c1.3,2,1.9,4.3,1.9,7c0,4.6-1.3,8-4,10.3c-2.6,2.3-6.4,3.5-11.3,3.5L568.5,102.7L568.5,102.7z M577.7,75.3
		h4.8c2,0,3.5-0.6,4.5-1.7s1.6-2.6,1.6-4.6c0-2.3-0.5-3.9-1.6-5s-2.7-1.6-4.9-1.6h-4.4L577.7,75.3L577.7,75.3z M577.7,81.7v13.9h6.7
		c2,0,3.5-0.6,4.5-1.7s1.5-2.8,1.5-5c0-2.3-0.5-4-1.4-5.3c-0.9-1.2-2.4-1.9-4.4-2h-0.3L577.7,81.7L577.7,81.7z"/>
</g>
<g>
	<path d="M247.1,45.6V8.9h10.2c3.5,0,6.3,0.8,8.2,2.5c2,1.6,3,4.1,3,7.4c0,1.7-0.4,3.2-1.3,4.6c-0.9,1.3-2.1,2.3-3.6,2.9
		c2.1,0.4,3.8,1.4,4.9,3c1.2,1.7,1.7,3.6,1.7,5.9c0,3.4-1,6-2.9,7.7c-1.9,1.8-4.6,2.7-8,2.7C259.3,45.6,247.1,45.6,247.1,45.6z
		 M252.3,24.8h5.8c1.6-0.1,2.9-0.6,3.9-1.6c0.9-1,1.4-2.5,1.4-4.3c0-2-0.5-3.5-1.5-4.5s-2.5-1.5-4.5-1.5h-5L252.3,24.8L252.3,24.8z
		 M252.3,28.5v13.3h7.1c1.9,0,3.3-0.6,4.3-1.7c1-1.1,1.5-2.7,1.5-4.8c0-2-0.5-3.6-1.5-4.8c-1-1.2-2.4-1.9-4.2-1.9h-0.3h-6.9V28.5z"
		/>
	<path d="M310.6,8.9v36.8h-5.1V12.8h-10.4L295,25.7c0,7-0.8,12-2.5,15.2c-1.6,3.1-4.3,4.7-7.9,4.7h-1v-3.9h0.9c2,0,3.4-1.2,4.2-3.5
		c0.8-2.3,1.2-6.5,1.2-12.5L290,8.8L310.6,8.9L310.6,8.9z"/>
	<path d="M344.7,36.3h-11l-2.7,9.3h-5.3l11-36.8h5l10.9,36.8h-5.3L344.7,36.3z M334.8,32.3h8.7l-4.2-14.9h-0.2L334.8,32.3z"/>
	<path d="M396.6,46.5h-5.1v-0.9h-21.3v0.9H365v-4.8h1.9c1.8,0,3.1-1.5,4-4.6s1.4-7.7,1.7-14l0.7-14.3h19.2v32.9h3.9v4.8H396.6z
		 M377.8,23.1c-0.2,4.3-0.6,8-1.3,11.1c-0.7,3.1-1.6,5.6-2.8,7.5h13.8V12.8h-9.2L377.8,23.1z"/>
	<path d="M430.6,8.9h5.1v36.8h-5.1v-27h-0.2l-14.3,27H411V8.9h5.1v26.9h0.2L430.6,8.9z"/>
	<path d="M476,34.6l0.1,0.2c0.1,3.6-0.9,6.4-3,8.4c-2.1,2-5,3-8.6,3c-3.8,0-6.8-1.2-9-3.6c-2.2-2.4-3.4-5.8-3.4-10.2V22.2
		c0-4.3,1.1-7.7,3.3-10.2c2.2-2.4,5.2-3.7,8.9-3.7c3.8,0,6.7,1,8.8,2.9c2.1,1.9,3.1,4.8,3.1,8.5l-0.1,0.2h-4.9
		c0-2.6-0.6-4.6-1.7-5.8s-2.9-1.9-5.1-1.9c-2.3,0-4,0.8-5.2,2.5s-1.8,4.1-1.8,7.3v10.3c0,3.2,0.6,5.6,1.9,7.3s3,2.5,5.4,2.5
		c2.2,0,3.9-0.6,5-1.8s1.7-3.2,1.7-5.9h4.6V34.6z"/>
	<path d="M516.5,8.9v36.8h-5.1V12.8H501l-0.1,12.9c0,7-0.8,12-2.5,15.2c-1.6,3.1-4.3,4.7-7.9,4.7h-1v-3.9h0.9c2,0,3.4-1.2,4.2-3.5
		c0.8-2.3,1.2-6.5,1.2-12.5l0.1-16.9L516.5,8.9L516.5,8.9z"/>
	<path d="M550.6,36.3h-11l-2.7,9.3h-5.3l11-36.8h5l10.9,36.8h-5.3L550.6,36.3z M540.7,32.3h8.7l-4.2-14.9H545L540.7,32.3z"/>
	<path d="M573.1,45.6V8.9h10.2c3.5,0,6.3,0.8,8.2,2.5c2,1.6,3,4.1,3,7.4c0,1.7-0.4,3.2-1.3,4.6c-0.9,1.3-2.1,2.3-3.6,2.9
		c2.1,0.4,3.8,1.4,4.9,3c1.2,1.7,1.7,3.6,1.7,5.9c0,3.4-1,6-2.9,7.7c-1.9,1.8-4.6,2.7-8,2.7C585.3,45.6,573.1,45.6,573.1,45.6z
		 M578.2,24.8h5.8c1.6-0.1,2.9-0.6,3.9-1.6c0.9-1,1.4-2.5,1.4-4.3c0-2-0.5-3.5-1.5-4.5s-2.5-1.5-4.5-1.5h-5v11.9H578.2z M578.2,28.5
		v13.3h7.1c1.9,0,3.3-0.6,4.3-1.7c1-1.1,1.5-2.7,1.5-4.8c0-2-0.5-3.6-1.5-4.8c-1-1.2-2.4-1.9-4.2-1.9h-0.3h-6.9V28.5z"/>
</g>
<path d="M95.8,8.3H11.5c-1.3,0-2.3,1.2-2.3,2.8v89.1c0,1.5,1,2.8,2.3,2.8h84.4c1.3,0,2.3-1.2,2.3-2.8V11.1
	C98.1,9.6,97.1,8.3,95.8,8.3z M41,52.8h-1.4h-3.3C35,52.8,34,54,34,55.5v33c0,2.7,1.6,4.5,3.2,5V96H19.7h-5.3v-2.5
	c3.1-0.6,3.1-2.9,3.3-5l7.5-64.3c0.2-2-1.4-4.7-3.2-4.7l0.2-2.1h16.1c1.3,0,2.6,1.2,2.6,2.7L41,52.8L41,52.8z M62,52.8h-1.3
	c-1.3,0-2.2,1.2-2.2,2.7v40.1H47.3v-40c0-1.5-1.1-2.7-2.4-2.7h-1.2l-0.4-32.6c0-1.5,1.4-2.7,2.7-2.7c5.2,0,8.4,0,13.7,0
	c1.3,0,2.3,1.2,2.3,2.7C62,20.3,62,52.8,62,52.8z M91.2,96.1h-5.3H68.3v-2.5c1.6-0.5,3.2-2.3,3.2-5v-33c0-1.5-1-2.7-2.3-2.7h-3.3
	h-1.3V20.2c0-1.5,1.4-2.7,2.6-2.7h16.1l0.2,2.1c-1.8,0-3.4,2.7-3.2,4.7l7.5,64.3c0.2,2.1,0.2,4.4,3.3,5v2.5H91.2z"/>
</svg>
