<svg width="58" height="49" viewBox="0 0 58 49" fill="none" xmlns="http://www.w3.org/2000/svg">
<path d="M46.1 0.706024L4.50001 8.40602C2.00001 8.90602 0.300012 11.306 0.700012 13.906L6.30001 44.306C6.80001 46.806 9.20001 48.506 11.8 48.106L53.4 40.406C55.9 39.906 57.6 37.506 57.2 34.906L51.6 4.40602C51.1 1.90602 48.6 0.206024 46.1 0.706024ZM38.4 23.106C37.6 22.506 36.4 22.706 35.8 23.506C35.2 24.306 35.4 25.506 36.2 26.106L51 37.006L12.7 44.106L22.7 28.606C23.3 27.706 23 26.606 22.1 26.006C21.2 25.406 20.1 25.706 19.5 26.606L9.60001 42.106L4.60001 15.006L28.4 28.506C28.8 28.706 29.2 28.806 29.6 28.706C30 28.606 30.4 28.406 30.7 28.106L48.1 7.00603L53.1 34.106L38.4 23.106ZM6.50001 11.806L45.4 4.60603L29 24.506L6.50001 11.806Z" fill="#7737A4"/>
</svg>
