<svg width="45" height="61" viewBox="0 0 45 61" fill="none" xmlns="http://www.w3.org/2000/svg">
<path d="M35.4 11.9C35.5 11.8 35.5 11.7 35.7 11.7C37.2 13.6 39.4 14.6 41.4 14C44.2 13.1 45.6 9.60001 44.5 6.00001C43.5 2.80001 40.9 0.700008 38.3 1.00001C38.3 1.00001 33.5 1.00001 32.9 7.00001C32.8 8.50001 33.2 10.3 33.7 11.9C33.7 11.9 33.7 12 33.8 12.1C34.3 13.4 34.8 14.5 35.1 15.2C35.2 15.4 35.3 15.6 35.3 15.8H24.3H21.4H10.4C10.5 15.6 10.6 15.4 10.6 15.2C11 14.5 11.5 13.4 11.9 12.1C12 12 12 11.9 12 11.9C12.5 10.3 12.9 8.50001 12.8 7.00001C12.2 1.00001 7.40001 1.00001 7.40001 1.00001C4.80001 0.700008 2.20001 2.80001 1.20001 6.00001C0.100012 9.50001 1.50001 13.1 4.30001 14C6.30001 14.6 8.50001 13.7 10 11.7C10.1 11.7 10.2 11.8 10.3 11.9H10.2C10.2 11.9 -0.799988 31.8 2.20001 43.3C4.90001 59.4 21.5 60.1 22.7 60.2C23.9 60.2 40.7 59.5 43.4 43.3C46.5 31.8 35.5 11.9 35.4 11.9ZM31.1 18.9V48.6C30.1 49.1 29 49.5 27.8 49.8V18.9H31.1ZM24.3 18.9H26.7V50.1C25.6 50.3 24.5 50.4 23.4 50.4V18.9H24.3ZM21.4 18.9H22.4V50.4C21.3 50.4 20.1 50.3 19.1 50.1V18.9H21.4ZM18.1 18.9V49.8C16.9 49.5 15.8 49.1 14.8 48.6V18.9H18.1ZM7.00001 36.4C6.60001 29.6 7.90001 23.4 9.30001 18.9H13.8V48.1C10 45.8 7.40001 41.9 7.00001 36.4ZM38.7 36.4C38.3 41.9 35.8 45.8 32 48.1V18.9H36.4C37.8 23.4 39.1 29.6 38.7 36.4Z" fill="#7737A4"/>
</svg>
