<svg width="38" height="73" viewBox="0 0 38 73" fill="none" xmlns="http://www.w3.org/2000/svg">
<path d="M13.1 36.5V34.6C13.1 33.9 13.7 33.4 14.3 33.4H14.4C15.1 33.4 15.7 34 15.7 34.6V37.1C16.5 37.2 17.2 37.3 17.8 37.3V34.6C17.8 33.9 18.4 33.4 19 33.4H19.1C19.8 33.4 20.3 34 20.3 34.6V37.3C20.9 37.3 21.6 37.2 22.4 37.1V34.6C22.4 33.9 23 33.4 23.7 33.4H23.8C24.5 33.4 25 34 25 34.6V36.5C27.7 35.6 30.2 33.9 30.2 30.4V29.6H23.5C22.8 29.6 22.2 29 22.2 28.4V28.3C22.2 27.6 22.8 27.1 23.5 27.1H30.2V25H23.5C22.8 25 22.2 24.4 22.2 23.8V23.7C22.2 23 22.8 22.5 23.5 22.5H30.2V20.4H23.5C22.8 20.4 22.2 19.8 22.2 19.2V19C22.2 18.3 22.8 17.8 23.5 17.8H30.2V15.7H23.5C22.8 15.7 22.2 15.1 22.2 14.5V14.4C22.2 13.7 22.8 13.2 23.5 13.2H30.2V11H23.5C22.8 11 22.2 10.4 22.2 9.8V9.7C22.2 9 22.8 8.5 23.5 8.5H30.2V7.7C30.2 4.2 27.6 2.5 25 1.6V3.5C25 4.2 24.4 4.7 23.8 4.7H23.7C23 4.7 22.4 4.1 22.4 3.5V1C21.6 0.900004 20.9 0.800003 20.3 0.800003V3.5C20.3 4.2 19.7 4.7 19.1 4.7H19C18.3 4.7 17.8 4.1 17.8 3.5V0.800003C17.2 0.800003 16.5 0.900004 15.7 1V3.5C15.7 4.2 15.1 4.7 14.4 4.7H14.3C13.6 4.7 13.1 4.1 13.1 3.5V1.6C10.4 2.5 7.8 4.2 7.8 7.7V8.5H14.5C15.2 8.5 15.7 9.1 15.7 9.7V9.8C15.7 10.5 15.1 11 14.5 11H7.8V13.1H14.5C15.2 13.1 15.7 13.7 15.7 14.3V14.4C15.7 15.1 15.1 15.6 14.5 15.6H7.8V17.7H14.5C15.2 17.7 15.7 18.3 15.7 18.9V19C15.7 19.7 15.1 20.2 14.5 20.2H7.8V22.3H14.5C15.2 22.3 15.7 22.9 15.7 23.5V23.6C15.7 24.3 15.1 24.8 14.5 24.8H7.8V27H14.5C15.2 27 15.7 27.6 15.7 28.2V28.3C15.7 29 15.1 29.5 14.5 29.5H7.8V30.3C7.8 33.9 10.4 35.6 13.1 36.5Z" fill="white"/>
<path d="M35.5 62C33.7 61.6 21.5 61 21.5 52.7C21.5 52.2 21 51.8 20.5 51.8H17.6C17.1 51.8 16.6 52.2 16.6 52.7C16.6 61 4.4 61.5 2.6 62C1.8 62 1.4 62.5 1.4 63.2V65.1C1.4 65.2 1.4 65.3 1.4 65.4V65.5C1.4 65.5 3.1 72.3 18.8 72.3C32.2 72.3 35.7 67.4 36.4 65.9C36.6 65.7 36.7 65.4 36.7 65.1V63.2C36.7 62.5 36.3 62 35.5 62Z" fill="white"/>
<path d="M35.6 19H33C32.2 19 31.6 19.6 31.6 20.4C31.6 21.1 32.2 21.7 32.9 21.8V34.1C32.9 37.6 30 40.5 26.5 40.5H11.2C7.7 40.5 4.8 37.6 4.8 34.1V21.8C5.5 21.8 6.1 21.2 6.1 20.4C6.1 19.6 5.5 19 4.7 19H2.1C1.3 19 0.699997 19.6 0.699997 20.4C0.699997 21.1 1.3 21.7 2 21.8V34.1C2 39.1 6.1 43.3 11.2 43.3H17.6V49.6H20.5V43.3H26.6C31.6 43.3 35.8 39.2 35.8 34.1V21.8C36.5 21.8 37.1 21.2 37.1 20.4C37 19.6 36.3 19 35.6 19Z" fill="white"/>
</svg>
